<?xml version="1.0" encoding="UTF-8"?>
<svg width="443px" height="320px" viewBox="0 0 443 320" version="1.1" xmlns="http://www.w3.org/2000/svg" xmlns:xlink="http://www.w3.org/1999/xlink">
    <!-- Generator: Sketch 52.6 (67491) - http://www.bohemiancoding.com/sketch -->
    <title>undraw_stripe_payments_o7aw</title>
    <desc>Created with Sketch.</desc>
    <defs>
        <linearGradient x1="49.9888699%" y1="100.023495%" x2="49.9888699%" y2="-0.00161146659%" id="linearGradient-1">
            <stop stop-color="#808080" stop-opacity="0.25" offset="0%"></stop>
            <stop stop-color="#808080" stop-opacity="0.12" offset="54%"></stop>
            <stop stop-color="#808080" stop-opacity="0.1" offset="100%"></stop>
        </linearGradient>
    </defs>
    <g id="Page-1" stroke="none" stroke-width="1" fill="none" fill-rule="evenodd">
        <g id="undraw_stripe_payments_o7aw">
            <path d="M257.38692,50.3315403 C228.987876,49.3261614 201.937434,39.9530562 176.110142,29.6997555 C150.28285,19.4464548 124.694699,8.08215159 96.9777965,2.64841076 C79.1480265,-0.844987775 58.7582655,-1.33789731 44.3940885,8.43031785 C30.567,17.8190709 26.1017168,34.0694377 23.7024602,49.1149144 C21.895177,60.4596577 20.8327611,72.3716381 25.7802478,82.9809291 C29.2183982,90.3471883 35.3223894,96.5359413 39.5446106,103.589242 C54.2263363,128.136919 43.857,158.407824 27.9325221,182.376528 C20.4838496,193.61956 11.8081062,204.34621 6.04910619,216.312958 C0.290106195,228.279707 -2.37573451,241.99511 2.66192035,254.204401 C7.66037168,266.308068 19.5625664,275.395599 32.4566106,281.787775 C58.6484956,294.77555 89.5134425,298.491932 119.61,300.596577 C186.232496,305.255746 253.211743,303.237164 320.010655,301.218582 C344.732407,300.467482 369.560009,299.712469 393.881885,295.804401 C407.383584,293.633252 421.324363,290.190709 431.125248,281.873839 C443.572372,271.311491 446.65769,253.445477 438.315177,240.211247 C424.339115,218.018582 385.656982,212.510513 375.879619,188.678729 C370.496973,175.56577 376.024673,160.958435 383.845779,148.776528 C400.624894,122.687531 428.749513,99.798533 430.231407,69.9735941 C431.250699,49.4904645 417.729398,28.9760391 396.826071,19.2860636 C374.911292,9.11491443 344.528549,10.405868 328.361009,27.2195599 C311.715186,44.5613692 282.461504,51.2234719 257.38692,50.3315403 Z" id="Path" fill="#6C63FF" opacity="0.1"></path>
            <ellipse id="Oval" fill="#6C63FF" opacity="0.1" cx="266.125389" cy="314.417604" rx="36.2828761" ry="5.42982885"></ellipse>
            <polygon id="Path" fill="#D0D2D5" points="252.655053 304.622005 182.798265 303.730073 183.006044 301.942298 186.381469 272.449878 247.731088 272.449878 252.243416 301.942298 252.588407 304.176039"></polygon>
            <polygon id="Path" fill="#000000" opacity="0.1" points="252.588407 304.176039 217.728619 304.176039 182.798265 303.730073 183.006044 301.942298 252.243416 301.942298"></polygon>
            <rect id="Rectangle" fill="#D0D2D5" x="171.154814" y="302.388264" width="92.6967699" height="2.23374083"></rect>
            <path d="M352.29085,95.3154034 C352.299188,93.7719275 351.692451,92.2884207 350.604225,91.1915136 C349.515999,90.0946064 348.035511,89.4742362 346.488726,89.4669927 L87.6199115,89.4669927 C84.3996849,89.4842332 81.8025921,92.1020444 81.8177876,95.3154034 L81.8177213,251.896333 L352.290934,251.896333 L352.29085,95.3154034 Z" id="Path" fill="#444053"></path>
            <path d="M81.8177876,250.33154 L81.8177876,268.670905 C81.8177876,271.868485 84.415487,274.460636 87.6199115,274.460636 L346.488726,274.460636 C348.027863,274.461674 349.504261,273.85202 350.592596,272.76601 C351.680931,271.679999 352.291891,270.206755 352.29085,268.670905 L352.290851,250.33154 L81.8177876,250.33154 Z" id="Path" fill="#D0D2D5"></path>
            <rect id="Rectangle" fill="#FFFFFF" x="93.0143186" y="99.2977995" width="249.424681" height="140.756968"></rect>
            <path d="M218.399,267.505134 C220.254368,267.505449 222.00726,266.65611 223.154389,265.200978 C223.327216,264.981417 223.484415,264.750044 223.624832,264.508557 L220.323894,263.96088 L223.911018,263.988264 C224.606323,262.478238 224.647447,260.749062 224.024708,259.207824 L219.214434,261.699756 L223.652274,258.444988 C222.506979,256.516087 220.384084,255.38016 218.14022,255.495576 C215.896355,255.610991 213.901757,256.958705 212.961283,258.99489 C212.02081,261.031074 212.289638,263.41976 213.659292,265.197066 C214.802228,266.649357 216.54847,267.499714 218.399,267.505134 Z" id="Path" fill="#6C63FF"></path>
            <polygon id="Path" fill="#000000" opacity="0.1" points="224.444186 274.460636 252.313982 302.388264 248.036876 274.460636"></polygon>
            <rect id="Rectangle" fill="#444053" opacity="0.1" x="92.8183009" y="99.3134474" width="249.695186" height="8.22298289"></rect>
            <rect id="Rectangle" fill="#6C63FF" x="94.2492301" y="100.745232" width="7.16640708" height="5.00342298" rx="0.305195103"></rect>
            <rect id="Rectangle" fill="#6C63FF" opacity="0.3" x="179.513009" y="100.745232" width="75.2315929" height="5.00342298" rx="0.226939948"></rect>
            <path d="M252.51,103.761369 L252.325743,103.761369 L252.259097,103.706601 C252.487202,103.432775 252.61326,103.088586 252.61585,102.732518 C252.611508,101.913695 251.942784,101.253418 251.122209,101.257743 C250.301633,101.262068 249.639936,101.929357 249.644263,102.74818 C249.648589,103.567003 250.3173,104.227292 251.137876,104.222983 C251.493008,104.217612 251.835794,104.0921 252.110124,103.866993 L252.17677,103.92176 L252.17677,104.105623 L253.325434,105.251834 L253.666504,104.907579 L252.51,103.761369 Z M251.137876,103.761369 C250.718559,103.762951 250.339722,103.511908 250.178523,103.125638 C250.017324,102.739368 250.105622,102.294211 250.402126,101.99834 C250.69863,101.702469 251.14474,101.61436 251.531837,101.775214 C251.918934,101.936069 252.170515,102.314097 252.168929,102.732518 C252.171038,103.006026 252.063086,103.268943 251.869268,103.462348 C251.675449,103.655752 251.411969,103.763473 251.137876,103.761369 Z" id="Shape" fill="#444053" fill-rule="nonzero"></path>
            <ellipse id="Oval" fill="#6C63FF" cx="338.930283" cy="103.244988" rx="2.50902655" ry="2.50366748"></ellipse>
            <path d="M274.852097,138.894866 L160.530655,138.894866 C156.571097,138.894866 153.360327,141.883619 153.360327,145.568704 L153.360327,208.363814 C153.360327,212.0489 156.571097,215.037653 160.530655,215.037653 L274.852097,215.037653 C278.811655,215.037653 282.022425,212.0489 282.022425,208.363814 L282.022425,145.568704 C282.022425,141.883619 278.811655,138.894866 274.852097,138.894866 Z" id="Path" fill="#000000" opacity="0.1"></path>
            <rect id="Rectangle" fill="#454B69" x="157.731522" y="135.319315" width="119.994195" height="76.1427873" rx="7.30511868"></rect>
            <rect id="Rectangle" fill="#6C63FF" opacity="0.3" x="170.33546" y="178.147677" width="19.0764425" height="6.45867971" rx="1.87812371"></rect>
            <rect id="Rectangle" fill="#6C63FF" opacity="0.3" x="195.884407" y="178.147677" width="19.0764425" height="6.45867971" rx="1.87812371"></rect>
            <rect id="Rectangle" fill="#6C63FF" opacity="0.3" x="206.44192" y="191.405379" width="16.6928673" height="4.75696822" rx="1.87812371"></rect>
            <rect id="Rectangle" fill="#6C63FF" opacity="0.3" x="221.433354" y="178.147677" width="19.0764425" height="6.45867971" rx="1.87812371"></rect>
            <rect id="Rectangle" fill="#6C63FF" opacity="0.3" x="246.982301" y="178.147677" width="19.0764425" height="6.45867971" rx="1.87812371"></rect>
            <rect id="Rectangle" fill="#6C63FF" x="172.036894" y="162.851834" width="12.9450088" height="12.9173594" rx="1.15426353"></rect>
            <path d="M180.63815,171.434719 L176.553142,171.434719 L176.553142,167.358435 L180.63815,167.358435 L180.63815,171.434719 Z M176.717796,171.266504 L180.465655,171.266504 L180.465655,167.52665 L176.717796,167.52665 L176.717796,171.266504 Z" id="Shape" fill="#454B69" fill-rule="nonzero"></path>
            <rect id="Rectangle" fill="#454B69" x="178.509398" y="162.851834" width="1" height="4.58875306"></rect>
            <rect id="Rectangle" fill="#454B69" x="178.509398" y="171.348655" width="1" height="4.4205379"></rect>
            <rect id="Rectangle" fill="#454B69" x="172.036894" y="169.22445" width="4.59857522" height="1"></rect>
            <rect id="Rectangle" fill="#454B69" x="180.555823" y="169.22445" width="4.43" height="1"></rect>
            <polygon id="Path" fill="#454B69" points="176.576664 167.503178 175.239823 166.177017 172.036894 166.177017 172.036894 166.00489 175.310389 166.00489 176.698195 167.381907"></polygon>
            <polygon id="Path" fill="#454B69" points="180.610708 167.503178 180.497018 167.377995 182.053398 166.00489 184.981903 166.00489 184.981903 166.177017 182.120044 166.177017"></polygon>
            <polygon id="Path" fill="#454B69" points="175.31431 173.003423 172.036894 173.003423 172.036894 172.831296 175.235903 172.831296 176.572743 171.293888 176.702115 171.407335"></polygon>
            <polygon id="Path" fill="#454B69" points="184.981903 173.003423 182.049478 173.003423 180.493097 171.411247 180.614628 171.289976 182.123965 172.831296 184.981903 172.831296"></polygon>
            <rect id="Rectangle" fill="#6C63FF" x="170.249212" y="141.183374" width="36.2789558" height="6.45867971" rx="1.60423067"></rect>
            <path d="M283.751301,241.760391 C283.727779,241.087531 283.645451,240.41467 283.563124,239.745721 C283.261257,237.23423 282.951549,234.722738 282.461504,232.246455 C282.374915,231.763345 282.243677,231.289275 282.069469,230.830318 C281.893053,230.396088 281.649991,229.997066 281.465735,229.566748 C281.46742,229.551145 281.46742,229.535407 281.465735,229.519804 C281.693115,229.410269 281.916575,229.300733 282.136115,229.183374 C282.294836,229.102958 282.446902,229.010082 282.590876,228.905623 C282.735729,228.801362 282.857228,228.668133 282.947628,228.514425 C283.339664,227.825917 282.900584,226.949633 282.700646,226.167237 C282.488947,225.326161 282.535991,224.31687 281.916575,223.753545 C279.705496,221.797555 280.803195,217.807335 279.697655,215.006357 C279.501637,214.517359 279.278177,214.036186 279.109602,213.535452 C278.98023,213.144254 278.890062,212.753056 278.795973,212.361858 C278.011903,209.101874 277.186015,205.856235 276.31831,202.624939 C275.404867,199.276284 275.502876,195.786797 274.358133,192.516381 C274.141988,191.838435 273.859676,191.183297 273.515257,190.560391 C273.131942,189.911451 272.613166,189.352423 271.994159,188.921271 C270.324088,187.771149 268.642257,186.789242 266.68208,186.37066 C264.721903,185.952078 262.604912,186.018582 260.605531,186.026406 C259.889354,185.035258 258.904726,184.268508 257.767195,183.816137 L257.731912,183.714425 C257.571934,183.318335 257.448583,182.908479 257.363398,182.489976 C257.299297,182.075743 257.266534,181.657283 257.265389,181.238142 C257.265389,180.788264 257.245788,180.334474 257.234027,179.884597 L257.343796,179.778973 C257.606164,179.502774 257.847295,179.207234 258.065142,178.894866 C258.275117,178.599812 258.458769,178.28696 258.613991,177.959902 C258.789924,177.588852 258.939272,177.205821 259.060912,176.813692 C259.299294,176.021203 259.460771,175.207681 259.543115,174.384352 C259.648965,173.418093 259.680327,172.428362 259.70777,171.462103 C259.70777,171.266504 259.70777,171.070905 259.70777,170.871394 L259.70777,170.72665 C259.70777,170.570171 259.70777,170.417604 259.70777,170.265037 L259.70777,170.214181 C259.740338,169.215073 259.487436,168.227332 258.978584,167.366259 C258.269,166.310024 257.05369,165.801467 255.881504,165.378973 C253.529292,164.565281 250.945779,164.02934 248.621009,164.901711 C246.774522,165.598044 245.300469,167.115892 243.477504,167.886553 C243.519249,167.956181 243.557201,168.028005 243.591195,168.101711 C243.591904,168.112131 243.591904,168.122587 243.591195,168.133007 C243.622558,168.203423 243.65,168.269927 243.673522,168.340342 C243.732652,168.498701 243.775985,168.662493 243.802894,168.82934 C243.855824,169.145322 243.855824,169.467881 243.802894,169.783863 C243.252521,170.029913 242.644674,170.119271 242.046575,170.042054 C242.272326,170.7788 242.648768,171.46081 243.152115,172.044988 C243.31285,172.248411 243.481425,172.436186 243.642159,172.651345 L243.889142,172.956479 C244.309252,173.448084 244.651657,174.00083 244.904513,174.595599 C244.997368,174.830989 245.061853,175.076559 245.096611,175.327139 C245.171097,175.823961 245.151496,176.39511 245.218142,176.891932 C245.243287,177.105565 245.297358,177.314808 245.378876,177.513936 C245.683198,179.605007 246.979376,181.421314 248.86015,182.392176 C249.114963,183.938763 249.114963,185.516494 248.86015,187.063081 C248.86015,187.149144 248.828788,187.235208 248.809186,187.321271 C247.74285,188.663081 246.719637,190.079218 245.406319,191.127628 C244.808971,191.594583 244.169879,192.005767 243.497106,192.35599 C243.102094,192.583306 242.679045,192.758213 242.238673,192.876284 C241.744708,192.989731 241.227221,192.974083 240.737177,193.095355 C239.79053,193.395333 238.993276,194.04268 238.506496,194.906601 C238.258609,195.363263 237.983698,195.804794 237.683221,196.228851 C237.408796,196.569193 237.063805,196.846944 236.773699,197.171638 C235.723044,198.345232 235.436858,200.043032 235.205558,201.631296 C234.388405,202.531976 233.492316,203.358074 232.527956,204.099756 C232.226179,204.339265 231.890644,204.533038 231.532186,204.674817 C230.606982,204.983863 229.591611,204.588753 228.787938,203.994132 C227.984265,203.399511 227.357009,202.617115 226.580779,202.006846 L226.37692,202.308068 C226.318807,202.250881 226.265078,202.18942 226.216186,202.124205 C225.897943,201.676851 225.677553,201.167704 225.569327,200.629829 C225.287062,199.186308 225.82023,197.641076 225.404673,196.236675 C225.251779,195.728117 224.883265,195.203912 224.373619,195.215648 C223.863973,195.227384 223.546425,195.735941 223.107345,195.974572 C222.401681,196.36577 221.539204,196.00978 220.841381,195.622494 C220.143558,195.235208 219.347726,194.800978 218.583257,195.031785 C218.553514,195.542862 218.77065,196.037282 219.167389,196.361858 C219.561195,196.672792 219.884533,197.063435 220.116115,197.508068 C220.230594,197.993482 220.274169,198.492857 220.245487,198.990709 C220.323894,200.133007 221.029558,201.114914 221.711699,202.006846 C222.558496,203.089161 223.444496,204.140179 224.369699,205.159902 C224.258746,205.354214 224.084404,205.504711 223.875735,205.586308 C223.822886,205.77171 223.822886,205.968143 223.875735,206.153545 C223.914476,206.281509 223.964323,206.405859 224.024708,206.525183 C224.114876,206.709046 224.224646,206.888998 224.318735,207.057213 L225.694779,209.470905 L225.918239,209.862103 C226.012327,210.026406 226.106416,210.182885 226.204425,210.343276 C226.528746,210.905265 226.913944,211.430008 227.353088,211.908068 C227.572002,212.137879 227.813684,212.344968 228.074434,212.526161 C228.244166,212.647877 228.423824,212.75518 228.611522,212.846944 C228.873752,212.980595 229.153538,213.076731 229.442637,213.132518 C229.584596,213.162777 229.728848,213.181097 229.873876,213.187286 C230.023927,213.199004 230.174666,213.199004 230.324717,213.187286 C230.776623,213.124254 231.219865,213.01007 231.645876,212.846944 C234.268593,211.927628 236.67569,210.460636 239.169035,209.212714 C239.511957,209.021371 239.880162,208.879145 240.262814,208.79022 C240.39195,208.765495 240.523417,208.755 240.65485,208.758924 C240.787983,208.762878 240.919921,208.78526 241.046885,208.825428 C241.172155,208.867384 241.290919,208.926639 241.399717,209.001467 C241.619556,209.148996 241.772905,209.376422 241.827035,209.635208 C241.901522,210.026406 241.972088,210.39022 242.042655,210.76577 C242.113221,211.14132 242.191628,211.51687 242.270035,211.892421 C242.42685,212.639609 242.595425,213.386797 242.791442,214.126161 C242.897292,214.517359 242.999221,214.932029 243.10115,215.338875 C243.352053,216.332518 243.599035,217.333985 243.826416,218.335452 C243.896982,218.648411 243.963628,218.965281 244.026354,219.27824 C244.143108,219.834855 244.226888,220.397852 244.277257,220.964303 C244.278984,220.977286 244.278984,220.99044 244.277257,221.003423 C244.31646,221.496333 244.320381,221.98533 244.324301,222.47824 L244.324301,224.023472 L244.363504,228.584841 C244.363504,229.242054 244.010673,229.652812 243.732327,230.243521 C243.677442,230.364792 243.626478,230.489976 243.583354,230.615159 C243.530625,230.77415 243.487424,230.936132 243.453982,231.100244 C243.453982,231.1511 243.43046,231.205868 243.422619,231.256724 C243.414779,231.307579 243.422619,231.377995 243.399097,231.436675 C243.375575,231.495355 243.399097,231.554034 243.379496,231.608802 C243.359894,231.66357 243.379496,231.726161 243.379496,231.780929 C243.379496,231.835697 243.379496,231.906112 243.379496,231.968704 C243.379496,232.031296 243.379496,232.07824 243.379496,232.129095 C243.379496,232.179951 243.379496,232.266015 243.379496,232.332518 C243.379496,232.399022 243.379496,232.430318 243.379496,232.477262 C243.379496,232.524205 243.406938,232.629829 243.418699,232.708068 L243.442221,232.825428 C243.469664,232.938875 243.497106,233.052323 243.53631,233.16577 C243.614717,233.400489 243.712726,233.631296 243.814655,233.858191 C243.916584,234.085086 244.018513,234.315892 244.104761,234.550611 C244.159451,234.6994 244.206556,234.850857 244.245894,235.004401 C244.2556,235.039169 244.263452,235.074427 244.269416,235.110024 C244.300779,235.231296 244.328221,235.352567 244.351743,235.477751 L244.351743,235.563814 C244.375265,235.696822 244.394867,235.833741 244.410549,235.955012 C244.412476,235.970601 244.412476,235.986367 244.410549,236.001956 C244.410549,236.154523 244.441912,236.30709 244.449752,236.459658 C244.485035,237.015159 244.477195,237.582396 244.449752,238.141809 L244.402708,240.927139 L244.402708,241.013203 C244.398371,241.100043 244.417317,241.186467 244.457593,241.26357 C244.514724,241.352816 244.614143,241.406121 244.720257,241.404401 C244.918989,241.389976 245.108815,241.316389 245.265186,241.193154 L246.511858,240.289487 L246.590265,240.289487 C245.606257,241.897311 244.818265,243.669438 244.665372,245.558924 C244.606123,246.806636 244.686331,248.05705 244.904513,249.287042 C246.053177,257.5022 248.758221,265.791687 248.18977,274.085086 C247.96631,277.351589 249.322752,280.535941 249.314912,283.806357 C249.314912,285.077751 249.099292,286.337408 249.044407,287.60489 C248.805265,293.050367 251.588717,298.558435 250.455735,303.878729 C250.84777,305.200978 252.333584,305.905134 252.753062,307.21956 C253.105894,308.334474 252.596248,309.519804 252.184611,310.611247 C252.036424,310.991631 251.922288,311.384363 251.84354,311.784841 C250.702717,311.784841 249.436442,311.808313 248.675894,312.125183 C248.46507,312.194054 248.259391,312.277718 248.060398,312.37555 C247.358655,312.794132 247.311611,313.940342 247.754611,314.632763 C248.197611,315.325183 250.687035,317.535452 251.416221,317.899267 L253.011805,318.681663 C253.867966,319.164525 254.793574,319.512866 255.756053,319.714425 C256.566166,319.804337 257.384566,319.788556 258.190593,319.667482 C258.813929,319.600978 259.503912,319.499267 259.907708,318.990709 C260.476159,318.270905 260.186053,317.101222 259.797938,316.060636 C259.941377,315.946505 260.052237,315.796759 260.119407,315.626406 C260.188334,315.35395 260.223877,315.074154 260.225257,314.793154 C260.340355,314.249201 260.527565,313.722974 260.781947,313.228362 C261.436646,311.636186 261.409204,309.844499 261.37,308.111491 C261.37718,305.29381 261.183285,302.479195 260.789788,299.688998 C260.59377,298.515403 260.327186,297.341809 260.099805,296.168215 C259.263236,291.918117 258.904266,287.588179 259.029549,283.25868 C259.043747,282.207244 258.897004,281.159807 258.594389,280.152567 C258.465846,279.571073 258.431434,278.972792 258.49246,278.38044 L258.962903,271.217604 C259.096758,269.760948 259.119038,268.296224 259.029549,266.836186 C258.962903,266.05379 258.833531,265.271394 258.755124,264.488998 C258.636195,262.997654 258.611317,261.500326 258.680637,260.005868 C258.723761,258.398044 258.798248,256.672861 259.719531,255.381907 C259.814437,255.214472 259.972556,255.09191 260.158611,255.041565 C260.346788,255.014181 260.401673,255.26846 260.331106,255.432763 C260.429115,255.730073 260.531044,256.023472 260.632973,256.320782 C260.664336,256.406846 260.691779,256.488998 260.723142,256.571149 C260.774106,256.723716 260.828991,256.876284 260.883876,257.028851 C260.938761,257.181418 260.962283,257.240098 260.997566,257.345721 L261.15046,257.736919 C261.193584,257.854279 261.240628,257.967726 261.283752,258.081174 C261.326876,258.194621 261.381761,258.327628 261.432726,258.4489 C261.48369,258.570171 261.534655,258.691443 261.58954,258.812714 C261.644425,258.933985 261.683628,259.035697 261.734593,259.149144 L261.92277,259.540342 C261.969814,259.638142 262.016858,259.739853 262.067823,259.837653 C262.118788,259.935452 262.220717,260.123227 262.299124,260.264059 C262.342248,260.34621 262.385372,260.428362 262.432416,260.506601 C262.557867,260.725672 262.687239,260.936919 262.824451,261.148166 C263.091035,261.539364 263.377221,261.930562 263.608522,262.349144 C263.690233,262.486742 263.763547,262.629136 263.828062,262.77555 C264.045101,263.315937 264.216878,263.873347 264.341628,264.442054 C264.478841,264.958435 264.639575,265.463081 264.815991,265.959902 C264.992407,266.456724 265.208027,266.953545 265.400124,267.438631 C265.505973,267.681174 265.615743,267.923716 265.725513,268.162347 C266.054823,268.886064 266.411575,269.598044 266.772248,270.3022 C266.835538,270.427016 266.885472,270.55814 266.921221,270.693399 C266.939334,270.759043 266.953732,270.825651 266.964345,270.89291 C266.978717,271.022915 266.978717,271.154103 266.964345,271.284108 C266.959943,271.36562 266.94946,271.446692 266.932982,271.52665 C266.909651,271.647262 266.874188,271.765219 266.827133,271.878729 C266.344929,272.977995 266.733044,274.061614 266.944743,275.14132 C267.129825,276.279388 267.218999,277.430932 267.211327,278.583863 C267.211327,278.975061 267.211327,279.366259 267.246611,279.730073 C267.246611,280.207335 267.246611,280.680685 267.274053,281.157946 C267.301496,281.635208 267.274053,282.182885 267.301496,282.695355 C267.310118,283.2086 267.289174,283.721915 267.23877,284.232763 C267.23877,284.412714 267.191726,284.588753 267.164283,284.764792 C267.078035,285.29291 266.956504,285.817115 266.850655,286.329584 C266.459191,288.392422 266.277931,290.489495 266.309646,292.588753 C266.309646,293.431133 266.337088,294.274817 266.391973,295.119804 C266.439018,295.968704 266.505664,296.813692 266.58015,297.662592 C266.619354,298.128117 266.666398,298.593643 266.713442,299.059169 C266.79185,299.865037 266.878097,300.670905 266.964345,301.476773 C267.050593,302.282641 267.144681,303.17066 267.227009,304.011736 C267.309336,304.852812 267.383823,305.693888 267.442628,306.531051 C267.479342,306.946045 267.392034,307.362591 267.191726,307.728117 C267.11258,307.873063 267.046964,308.024966 266.995708,308.181907 C266.95917,308.290588 266.930349,308.401703 266.90946,308.514425 C266.886473,308.643846 266.870767,308.77445 266.862416,308.905623 C266.85267,309.180324 266.868419,309.455335 266.90946,309.727139 C266.930369,309.862755 266.953891,309.993154 266.980027,310.118337 C267.038832,310.388264 267.109398,310.658191 267.179965,310.924205 C267.34156,311.661332 267.605463,312.372347 267.964035,313.036675 C268.040362,313.173345 268.126853,313.304111 268.222779,313.427873 C268.250221,313.466993 268.281584,313.5022 268.312947,313.54132 C268.393938,313.635385 268.468589,313.734707 268.536407,313.838631 C268.568466,313.886868 268.596024,313.937938 268.618735,313.991198 C268.699268,314.20759 268.715601,314.442556 268.665779,314.667971 C268.622655,314.902689 268.540327,315.137408 268.477602,315.360391 L268.68146,315.387775 C268.395274,316.291443 268.261982,317.218582 268.744186,317.824939 C269.136221,318.333496 269.837965,318.435208 270.461301,318.501711 C271.266985,318.626078 272.085647,318.643179 272.895841,318.552567 C273.858319,318.351008 274.783928,318.002667 275.640088,317.519804 L277.235673,316.737408 C277.964858,316.373594 280.450363,314.178973 280.893363,313.466993 C281.336363,312.755012 281.285398,311.632274 280.591496,311.213692 C280.393023,311.113624 280.187275,311.028624 279.976,310.959413 C279.270336,310.666015 278.129513,310.638631 277.063177,310.622983 C277.008292,310.231785 276.976929,309.805379 276.961248,309.402445 C276.889962,307.905211 276.918776,306.404901 277.047496,304.911491 C277.137664,303.851345 277.274876,302.79511 277.263115,301.734963 C277.263115,300.318826 276.969088,298.918337 276.816195,297.510024 C276.663301,296.101711 276.647619,294.724694 276.624097,293.332029 C276.588814,291.282152 277.192549,289.330073 277.455212,287.303667 L277.913894,283.739853 C277.990869,283.307128 278.001444,282.865238 277.945257,282.42934 C277.87469,282.038142 277.694354,281.646944 277.619867,281.255746 C277.459133,280.367726 277.862929,279.487531 277.988381,278.591687 C278.133434,277.562836 277.909973,276.518337 277.76492,275.485575 C277.574743,273.854769 277.484407,272.213907 277.494416,270.572127 C277.353283,260.479218 277.067097,250.159413 273.648549,240.715892 C273.511336,240.324694 273.362363,239.933496 273.209469,239.569682 C273.278534,239.551065 273.346579,239.528867 273.413327,239.503178 C273.520048,239.463678 273.621445,239.411117 273.715195,239.346699 C273.756873,239.32154 273.79623,239.292739 273.832805,239.260636 C273.942025,239.152013 274.02164,239.017361 274.064106,238.869438 C274.110031,238.726527 274.133827,238.57746 274.134673,238.427384 C274.129863,238.162855 274.091665,237.899985 274.020982,237.644988 L273.973938,237.484597 C273.895531,237.218582 273.809283,236.956479 273.719115,236.7022 C273.632867,236.447922 273.538779,236.201467 273.44077,235.9511 C273.236516,235.487026 273.071292,235.006805 272.946805,234.515403 C272.707664,233.404401 272.946805,232.121271 272.276425,231.217604 C270.794531,229.191198 271.841265,226.077262 271.22185,223.608802 C271.017991,222.826406 270.720044,222.04401 270.531867,221.261614 C270.414257,220.76088 270.33977,220.248411 270.265283,219.735941 C270.069196,218.627891 269.972112,217.504652 269.975177,216.379462 C269.975177,215.816137 270.061425,215.252812 270.128071,214.693399 L270.598513,210.812714 C271.124109,211.816705 271.499231,212.892218 271.711894,214.00489 C271.747177,214.165281 271.77854,214.32176 271.813823,214.482152 C272.237676,216.396209 272.761098,218.28695 273.381965,220.146699 C273.738717,221.269438 274.091549,222.388264 274.475743,223.499267 C274.589434,223.816137 274.699204,224.136919 274.801133,224.461614 C274.901187,224.786025 274.979764,225.116648 275.036354,225.451345 C275.079478,225.717359 275.09908,225.991198 275.118681,226.261125 C275.138283,226.531051 275.153965,226.808802 275.181407,227.078729 C275.309569,228.234097 275.698256,229.345508 276.31831,230.329584 C276.337907,230.35473 276.356225,230.380843 276.373195,230.407824 C276.478745,230.59791 276.648111,230.744749 276.851478,230.822494 C276.992414,230.851703 277.137861,230.851703 277.278796,230.822494 L277.302319,230.822494 C277.510097,230.779462 277.717876,230.732518 277.921735,230.681663 C277.95223,230.675629 277.98234,230.667792 278.011903,230.658191 C278.105991,231.870905 278.466664,233.079707 278.498027,234.304156 C278.53723,236.084108 277.882531,237.789731 277.466973,239.514914 C277.117052,241.089279 276.882517,242.686986 276.76523,244.295355 C276.711591,244.613839 276.731706,244.940348 276.824035,245.249878 C276.916226,245.559694 277.215078,245.761234 277.53754,245.731051 C277.760554,245.656205 277.943244,245.49369 278.043265,245.281174 C278.509605,244.5076 278.665083,243.586507 278.478425,242.703178 C278.850858,242.781418 279.042956,243.207824 279.133124,243.59511 C279.371486,244.599173 279.314313,245.650553 278.968469,246.622983 C278.737168,247.272372 278.380416,247.870905 278.184398,248.539853 C278.113894,248.747922 278.113894,248.973349 278.184398,249.181418 C278.380416,249.631296 278.999832,249.6 279.446752,249.435697 C280.907383,248.841445 282.093931,247.725766 282.775133,246.306112 C283.469138,244.893668 283.804373,243.332582 283.751301,241.760391 Z" id="Path" fill="url(#linearGradient-1)"></path>
            <path d="M260.879956,319.025917 C260.460478,319.530562 259.743053,319.632274 259.092274,319.698778 C258.252043,319.819766 257.399955,319.835536 256.555805,319.745721 C255.560535,319.545423 254.600217,319.200078 253.705708,318.720782 L252.043478,317.938386 C251.28685,317.574572 248.699416,315.391687 248.236814,314.683619 C247.774212,313.97555 247.821257,312.860636 248.550442,312.442054 C248.75884,312.344197 248.973645,312.26055 249.193381,312.191687 C250.416531,311.706601 252.894195,311.953056 254.195752,311.765281 C254.841057,311.735099 255.481971,311.8855 256.046159,312.199511 C257.332035,312.766748 259.598,313.216626 260.158611,314.660147 C260.59377,315.771149 261.785558,317.92665 260.879956,319.025917 Z" id="Path" fill="#2F2E41"></path>
            <path d="M270.112389,317.954034 C270.531867,318.45868 271.249292,318.560391 271.900071,318.626895 C273.754241,318.972751 275.671097,318.623076 277.282717,317.644988 L278.944947,316.862592 C279.705496,316.498778 282.292929,314.315892 282.755531,313.607824 C283.218133,312.899756 283.171088,311.780929 282.437982,311.366259 C282.231983,311.265991 282.0183,311.18227 281.798965,311.115892 C280.575814,310.630807 278.09815,310.877262 276.796593,310.689487 C276.149915,310.657935 275.507369,310.808401 274.942265,311.123716 C273.66031,311.690954 271.413947,312.140831 270.833735,313.584352 C270.386814,314.699267 269.191106,316.854768 270.112389,317.954034 Z" id="Path" fill="#2F2E41"></path>
            <path d="M274.154274,238.85379 C274.555112,239.622839 274.90478,240.417385 275.201009,241.232274 C278.76069,250.621027 279.058637,260.893888 279.207611,270.935941 C279.194343,272.568923 279.28732,274.201043 279.485956,275.822005 C279.634929,276.850856 279.877991,277.887531 279.717257,278.916381 C279.587885,279.804401 279.168407,280.680685 279.325221,281.56088 C279.399708,281.952078 279.587885,282.343276 279.662372,282.734474 C279.721108,283.16776 279.709192,283.607676 279.627088,284.037164 L279.152726,287.581418 C278.878301,289.6 278.251044,291.540342 278.286327,293.578484 C278.30985,294.967237 278.333372,296.35599 278.486265,297.736919 C278.713743,299.128516 278.869456,300.530852 278.952788,301.938386 C278.952788,302.994621 278.819496,304.046944 278.725407,305.099267 C278.593415,306.58464 278.563288,308.077276 278.635239,309.566748 C278.690124,310.712958 278.823416,311.913936 279.41931,312.880196 C278.733248,313.858191 278.058947,314.734474 276.965168,315.227384 C274.742327,316.197555 272.190177,315.868949 269.787,315.520782 C269.920292,315.078729 270.12415,314.577995 269.932053,314.155501 C269.820777,313.951343 269.682307,313.763161 269.520416,313.596088 C268.997443,312.85109 268.633183,312.00696 268.450159,311.115892 C268.160053,310.055746 267.869947,308.917359 268.450159,307.904156 C268.654234,307.54831 268.74579,307.139235 268.712823,306.730562 C268.214938,300.080196 266.729124,293.179462 268.097327,286.642543 C268.242381,285.94621 268.414876,285.249878 268.489363,284.541809 C268.563202,283.523764 268.576293,282.502237 268.528566,281.482641 L268.544248,280.023472 C268.473681,278.509535 268.544248,276.956479 268.230619,275.458191 C268.015,274.386308 267.607283,273.306601 268.109088,272.211247 C268.327983,271.7062 268.300485,271.128524 268.034602,270.646455 C266.978408,268.800863 266.129106,266.844819 265.502053,264.813692 C265.372452,264.24653 265.194068,263.691581 264.968885,263.155012 C264.663512,262.588711 264.312116,262.048351 263.91823,261.539364 C262.742124,259.814181 262.012938,257.815159 261.315115,255.843521 C261.389602,255.659658 261.315115,255.409291 261.138699,255.452323 C260.94615,255.499582 260.780806,255.622267 260.680018,255.792665 C259.723451,257.075795 259.641124,258.789242 259.598,260.393154 C259.526091,261.879814 259.552283,263.369584 259.676407,264.852812 C259.754814,265.635208 259.892027,266.417604 259.962593,267.2 C260.054696,268.652223 260.0311,270.109451 259.892027,271.557946 L259.409823,278.654279 C259.341077,279.24383 259.375567,279.840819 259.511752,280.418582 C259.826361,281.41687 259.979865,282.458732 259.966513,283.505134 C259.843123,287.808856 260.222026,292.112287 261.095575,296.328606 C261.330796,297.5022 261.609142,298.652323 261.813,299.822005 C262.219988,302.596596 262.421778,305.397316 262.416735,308.201467 C262.459858,309.92665 262.487301,311.722249 261.805159,313.287042 C261.537508,313.778154 261.342099,314.305156 261.224947,314.851834 C261.22448,315.131856 261.187581,315.410632 261.115177,315.681174 C260.915239,316.193643 260.331106,316.412714 259.778336,316.530073 C258.765602,316.74936 257.726664,316.823129 256.693018,316.749144 C256.450698,316.746637 256.211614,316.693324 255.991274,316.592665 C255.599239,316.393154 255.403221,315.97066 255.109195,315.65379 C254.478018,314.965281 253.427363,314.754034 252.851071,314.018582 C252.129726,313.095355 252.431593,311.761369 252.851071,310.673839 C253.270549,309.586308 253.807637,308.408802 253.439124,307.2978 C253.003965,305.99511 251.478947,305.290954 251.047708,303.976528 C252.223814,298.679707 249.330593,293.202934 249.577575,287.784841 C249.636381,286.521271 249.85592,285.269438 249.859841,284.005868 C249.859841,280.7511 248.460274,277.582396 248.683735,274.335452 C249.275708,266.085086 246.456973,257.846455 245.265186,249.65868 C245.037186,248.437771 244.95298,247.194453 245.014283,245.954034 C245.190699,243.904156 246.143345,241.999022 247.288088,240.289487 C248.111363,239.065037 249.099292,237.864059 250.459655,237.29291 C251.580876,236.81956 252.835389,236.823472 254.050699,236.831296 C257.085053,236.854768 260.119407,236.87824 263.153761,236.933007 C265.218852,236.90324 267.281487,237.086777 269.308717,237.480685 C270.951345,237.852323 272.488124,238.615159 274.154274,238.85379 Z" id="Path" fill="#2F2E41"></path>
            <g id="Group" opacity="0.1" transform="translate(261.095575, 255.061125)" fill="#000000">
                <path d="M0.54100885,0.70806846 C0.642787263,0.538561652 0.80771125,0.416187806 0.999690265,0.367726161 C1.19570796,0.340342298 1.25451327,0.590709046 1.18002655,0.758924205 C1.87784956,2.71491443 2.59135398,4.72958435 3.77922124,6.45476773 C4.17570311,6.96272988 4.52848201,7.50320009 4.83379646,8.07041565 C5.05721865,8.60763089 5.23555399,9.16243001 5.3669646,9.72909535 C5.99425182,11.7595129 6.8421677,13.7153923 7.89559292,15.5618582 C8.16324977,16.0434255 8.1907878,16.6219353 7.97007965,17.1266504 C7.46827434,18.2220049 7.87599115,19.3017115 8.09553097,20.3735941 C8.39739823,21.8718826 8.33859292,23.4249389 8.40915929,24.9388753 C8.40915929,25.4122249 8.40915929,25.8855746 8.43660177,26.3589242 C8.48759189,27.3784067 8.47580866,28.4000515 8.40131858,29.4180929 C8.31899115,30.1261614 8.14649558,30.8224939 8.00928319,31.5188264 C6.645,38.0557457 8.12689381,44.9447433 8.62477876,51.606846 C8.65917902,52.0151346 8.5689797,52.4242558 8.3660354,52.7804401 C7.77014159,53.793643 8.06024779,54.9320293 8.3660354,55.992176 C8.5460205,56.8841928 8.91053979,57.728924 9.43629204,58.4723716 C9.58888558,58.6425543 9.72050153,58.8303631 9.82832743,59.0317848 C10.0204248,59.4542787 9.82832743,59.9550122 9.67935398,60.397066 C10.7414768,60.5673473 11.8119483,60.6809563 12.8862035,60.7374083 C11.4922749,60.7488617 10.1001473,60.6349537 8.72670796,60.397066 C8.86,59.9550122 9.06385841,59.4542787 8.87176106,59.0317848 C8.76048518,58.8276261 8.62201451,58.6394451 8.46012389,58.4723716 C7.93715066,57.7273739 7.57289052,56.8832433 7.38986726,55.992176 C7.09976106,54.9320293 6.80965487,53.793643 7.38986726,52.7804401 C7.59394198,52.4245939 7.68549772,52.0155184 7.65253097,51.606846 C7.15464602,44.9564792 5.66883186,38.0557457 7.0370354,31.5188264 C7.1820885,30.8224939 7.35458407,30.1261614 7.4290708,29.4180929 C7.50290994,28.4000475 7.5160009,27.3785208 7.46827434,26.3589242 C7.46827434,25.8855746 7.44867257,25.4122249 7.4369115,24.9388753 C7.36634513,23.4249389 7.4369115,21.8718826 7.12328319,20.3735941 C6.90766372,19.3017115 6.4999469,18.2220049 7.00175221,17.1266504 C7.22064686,16.6216037 7.19314848,16.0439271 6.92726549,15.5618582 C5.87107192,13.7162661 5.02177007,11.7602223 4.39471681,9.72909535 C4.2633062,9.16243001 4.08497086,8.60763089 3.86154867,8.07041565 C3.55617595,7.50411432 3.20478016,6.96375431 2.81089381,6.45476773 C1.67399115,4.80782396 0.972247788,2.91442543 0.305787611,1.02885086 C0.392035398,0.931051345 0.46260177,0.817603912 0.54100885,0.70806846 Z" id="Path"></path>
            </g>
            <path d="M225.130248,201.240098 C224.836221,199.804401 225.392912,198.266993 224.957752,196.870416 C224.800938,196.36577 224.416743,195.841565 223.887496,195.853301 C223.358248,195.865037 223.025018,196.369682 222.570257,196.608313 C221.83715,196.999511 220.94331,196.643521 220.218044,196.260147 C219.492779,195.876773 218.649903,195.438631 217.865832,195.669438 C217.771743,196.170171 218.108894,196.643521 218.477407,196.991687 C218.881597,197.299869 219.216768,197.688956 219.461416,198.133985 C219.645673,198.595599 219.559425,199.11198 219.598628,199.608802 C219.680956,200.743276 220.382699,201.725183 221.123646,202.609291 C222.285041,204.034181 223.518962,205.398649 224.82054,206.697311 C224.82054,206.697311 226.780717,204.256235 226.753274,203.829829 C226.725832,203.403423 226.055451,203.047433 225.812389,202.72665 C225.478028,202.287335 225.245094,201.779713 225.130248,201.240098 Z" id="Path" fill="#A1616A"></path>
            <path d="M283.95908,231.284108 C284.134792,231.739889 284.266077,232.211506 284.351115,232.692421 C284.860761,235.156968 285.18223,237.656724 285.499779,240.152567 C285.582106,240.817604 285.668354,241.486553 285.691876,242.155501 C285.783388,243.749542 285.454943,245.339704 284.73923,246.767726 C284.016565,248.204988 282.782013,249.321106 281.277558,249.897311 C280.814956,250.061614 280.168097,250.09291 279.964239,249.646944 C279.891619,249.440569 279.891619,249.215666 279.964239,249.009291 C280.148496,248.344254 280.520929,247.745721 280.74831,247.100244 C281.106227,246.135942 281.16631,245.08673 280.920805,244.08802 C280.826717,243.696822 280.626779,243.27824 280.238664,243.2 C280.432104,244.081792 280.268657,245.004136 279.783903,245.766259 C279.675989,245.979336 279.486642,246.140079 279.258575,246.212225 C278.929088,246.246118 278.619933,246.048032 278.513708,245.734963 C278.419439,245.427121 278.399291,245.101427 278.454903,244.784352 C278.577849,243.182667 278.821601,241.592507 279.184088,240.027384 C279.615327,238.310024 280.301389,236.616137 280.254345,234.84401 C280.215142,233.240098 279.576124,231.66357 279.75646,230.071394 C279.750218,229.889538 279.870457,229.727399 280.046566,229.680196 C280.496771,229.496072 280.959163,229.343142 281.430451,229.222494 C281.708796,229.152078 282.657522,228.831296 282.924106,228.972127 C283.19069,229.112958 283.206372,229.805379 283.316142,230.047922 C283.52392,230.450856 283.778743,230.849878 283.95908,231.284108 Z" id="Path" fill="#A1616A"></path>
            <ellipse id="Oval" fill="#A1616A" cx="252.231655" cy="177.200978" rx="6.56659292" ry="6.55256724"></ellipse>
            <path d="M258.116106,181.942298 C258.113347,182.36029 258.146134,182.777761 258.214115,183.19022 C258.305351,183.60738 258.436635,184.014803 258.60615,184.406846 C258.824426,185.047246 259.13334,185.653214 259.523513,186.206357 C259.919221,186.764728 260.513896,187.151001 261.185743,187.286064 C256.696127,189.386995 251.902919,190.769211 246.982301,191.381907 C247.757249,190.867884 248.401534,190.180775 248.864071,189.375061 C249.111519,188.85946 249.27938,188.309472 249.361956,187.743765 C249.78285,185.374417 249.570556,182.936226 248.74646,180.674817 C248.664133,180.455746 248.585726,180.181907 248.74646,179.998044 C248.813577,179.932612 248.893713,179.881968 248.981681,179.849389 C250.930545,179.023711 253.036169,178.631252 255.152319,178.699267 C255.693327,178.699267 256.234336,178.72665 256.775345,178.76577 C257.065451,178.789242 257.704469,178.72665 257.951451,178.937897 C258.198434,179.149144 258.088664,179.978484 258.096504,180.318826 L258.116106,181.942298 Z" id="Path" fill="#A1616A"></path>
            <path d="M261.58954,186.722738 C259.600866,184.183135 256.134374,183.32159 253.184301,184.633741 C250.048018,186.124205 248.51908,189.719315 245.770912,191.800489 C245.145481,192.267812 244.478911,192.677637 243.779372,193.024939 C243.366602,193.251747 242.926608,193.425266 242.469973,193.54132 C241.956407,193.654768 241.423239,193.63912 240.901832,193.760391 C239.927153,194.046091 239.09673,194.688888 238.577062,195.559902 C238.320745,196.015891 238.035275,196.45494 237.722425,196.874328 C237.436239,197.21467 237.079487,197.492421 236.777619,197.817115 C235.683841,198.990709 235.385894,200.672861 235.138912,202.253301 C234.282808,203.151464 233.348735,203.972269 232.347619,204.706112 C232.033558,204.947627 231.684597,205.1402 231.312646,205.277262 C230.352159,205.59022 229.289743,205.19511 228.470389,204.604401 C227.651035,204.013692 226.984575,203.235208 226.176982,202.648411 C225.436035,203.704645 224.659805,204.768704 223.867894,205.777995 C223.749601,205.974347 223.566707,206.123668 223.350407,206.200489 C223.201434,206.701222 223.558186,207.217604 223.82477,207.66357 L225.255699,210.065526 C225.730984,210.938762 226.311593,211.750667 226.984575,212.48313 C227.678895,213.203873 228.615891,213.642805 229.615133,213.715403 C230.24719,213.70966 230.872908,213.589026 231.461619,213.359413 C234.205867,212.44401 236.695292,210.984841 239.302327,209.740831 C239.772645,209.473865 240.298795,209.31984 240.839106,209.290954 C241.393979,209.278319 241.889981,209.634358 242.054416,210.163325 C242.352363,211.665526 242.646389,213.159902 243.054106,214.630807 C243.443528,216.023472 243.802894,217.420049 244.132204,218.820538 C244.353172,219.680206 244.510411,220.554942 244.602646,221.437653 C244.64577,221.938386 244.64969,222.43912 244.657531,222.943765 L244.712416,229.015159 C244.712416,229.672372 244.343903,230.079218 244.053796,230.666015 C243.616645,231.578455 243.550608,232.624378 243.86954,233.584352 C244.030274,234.057702 244.285097,234.495844 244.465434,234.965281 C244.896673,236.095844 244.880991,237.339853 244.857469,238.548655 L244.806504,241.318337 C244.791762,241.43383 244.812255,241.551075 244.86531,241.654768 C245.033885,241.91687 245.441602,241.764303 245.700345,241.584352 L246.982301,240.708068 C248.7198,240.947482 250.475161,241.032575 252.227735,240.962347 C257.210504,240.891932 262.197195,241.087531 267.168204,241.435697 C268.830434,241.553056 270.543628,241.67824 272.11177,241.12665 C272.895841,240.844988 273.640708,240.39511 274.463982,240.172127 C274.800408,240.117136 275.11889,239.983043 275.393106,239.780929 C275.847867,239.362347 275.726336,238.607335 275.54208,238.036186 C275.377425,237.519804 275.193168,237.007335 274.985389,236.506601 C274.774126,236.045536 274.601052,235.567983 274.467903,235.078729 C274.22092,233.97555 274.467903,232.696333 273.774,231.796577 C272.229381,229.781907 273.323159,226.679707 272.672381,224.226895 C272.464602,223.444499 272.154894,222.662103 271.958876,221.879707 C271.833425,221.378973 271.755018,220.870416 271.680531,220.361858 C271.474603,219.260232 271.37353,218.141643 271.378664,217.021027 C271.378664,216.461614 271.468832,215.9022 271.539398,215.346699 L272.029442,211.481663 C272.640502,212.625625 273.066542,213.858766 273.291796,215.135452 C273.737108,217.043091 274.286781,218.924964 274.938345,220.772616 C275.306858,221.887531 275.675372,222.998533 276.075248,224.105623 C276.331063,224.737876 276.526638,225.392764 276.659381,226.061614 C276.745628,226.597555 276.749549,227.145232 276.812274,227.681174 C276.943689,228.83691 277.346651,229.94537 277.988381,230.916381 C278.108597,231.142068 278.306205,231.317036 278.545071,231.409291 C278.703889,231.444314 278.868456,231.444314 279.027274,231.409291 C280.761015,231.067446 282.439111,230.488213 284.013965,229.68802 C284.348637,229.547885 284.639653,229.320972 284.856841,229.030807 C285.280239,228.342298 284.805876,227.485575 284.598097,226.703178 C284.390319,225.920782 284.429522,224.860636 283.770903,224.301222 C281.469655,222.345232 282.594796,218.382396 281.461814,215.597066 C281.257956,215.108068 281.022735,214.634719 280.850239,214.133985 C280.716947,213.742787 280.618938,213.351589 280.520929,212.960391 C279.718563,209.718663 278.858699,206.488672 277.941336,203.270416 C276.992611,199.937408 277.09454,196.467482 275.898832,193.212714 C275.674284,192.53296 275.381379,191.877625 275.024593,191.256724 C274.62453,190.607523 274.089837,190.051296 273.456451,189.625428 C271.719735,188.479218 269.971257,187.505134 267.928752,187.090465 C265.886248,186.675795 263.667327,186.699267 261.58954,186.722738 Z" id="Path" fill="#3F3D56"></path>
            <path d="M246.264876,178.80489 C245.382796,178.33154 245.614097,177.040587 245.480805,176.066504 C245.171097,174.028362 242.86985,172.823472 242.344522,170.836186 C242.965654,170.913345 243.596176,170.824234 244.171407,170.577995 C244.281629,169.918143 244.150864,169.240731 243.802894,168.668949 C245.696425,167.886553 247.233204,166.396088 249.154177,165.703667 C251.576956,164.831296 254.250637,165.367237 256.712619,166.177017 C257.93185,166.568215 259.198124,167.104156 259.93515,168.152567 C260.742743,169.306601 260.719221,170.820538 260.687858,172.228851 C260.621212,174.435208 260.531044,176.719804 259.547035,178.695355 C258.296442,181.210758 254.748522,183.538386 251.816097,182.857702 C250.600788,182.576039 250.247956,181.809291 249.726549,180.753056 C249.40508,180.095844 249.287469,179.333007 248.550442,178.988753 C247.813416,178.644499 246.982301,179.188264 246.264876,178.80489 Z" id="Path" fill="#3F3D56"></path>
            <g id="Group" opacity="0.1" transform="translate(223.068142, 205.378973)" fill="#000000">
                <path d="M21.7697257,33.6352078 C21.7682497,33.6468976 21.7682497,33.6587259 21.7697257,33.6704156 C21.9383009,33.9325183 22.3460177,33.7799511 22.6047611,33.6 L23.9063186,32.7041565 C25.6439338,32.9422631 27.3992949,33.0260472 29.1517522,32.9545232 C34.1345221,32.8841076 39.1212124,33.0797066 44.0922212,33.4278729 C45.7544513,33.5452323 47.467646,33.6704156 49.0357876,33.1188264 C49.8198584,32.8371638 50.5647257,32.391198 51.388,32.1643032 C51.6722696,32.1117024 51.9462503,32.0139668 52.1995133,31.8748166 C52.2936018,32.1330073 52.3837699,32.391198 52.4660973,32.6572127 C52.650354,33.2479218 52.771885,33.9833741 52.3171239,34.401956 C52.0429076,34.6040695 51.7244261,34.7381629 51.388,34.793154 C50.5725664,35.0161369 49.8198584,35.4660147 49.0357876,35.7476773 C47.467646,36.2992665 45.7544513,36.1740831 44.0922212,36.0567237 C39.1212124,35.7085575 34.1345221,35.5129584 29.1517522,35.5833741 C27.4017884,35.6531389 25.6490711,35.5680466 23.9141593,35.3290954 L22.6126018,36.2288509 C22.3538584,36.408802 21.9461416,36.5613692 21.7775664,36.2992665 C21.7245116,36.1955738 21.7040182,36.0783288 21.7187611,35.9628362 C21.737056,35.1882641 21.7540442,34.4123879 21.7697257,33.6352078 Z" id="Path"></path>
                <path d="M50.2236549,9.74865526 C49.9984003,8.4719692 49.5723603,7.23882801 48.9613009,6.09486553 L48.4712566,9.9599022 C48.4398938,10.202445 48.408531,10.4449878 48.3810885,10.6875306 C48.3184619,10.1317467 48.2948822,9.57227136 48.3105221,9.01320293 C48.3105221,8.45378973 48.4006903,7.89437653 48.4712566,7.33887531 L48.9613009,3.47383863 C49.5723603,4.61780111 49.9984003,5.85094231 50.2236549,7.12762836 C50.6689668,9.03526743 51.2186394,10.9171398 51.8702035,12.7647922 C52.2387168,13.8797066 52.6072301,14.994621 53.0071062,16.0977995 C53.2623993,16.7302341 53.4579589,17.3850729 53.5912389,18.0537897 C53.6774867,18.5897311 53.6814071,19.1374083 53.7441327,19.6733496 C53.8733559,20.8295981 54.2764988,21.9385549 54.9202389,22.9085575 C55.0377757,23.1348735 55.2344707,23.3102681 55.4730088,23.401467 C55.6332521,23.4300778 55.7978251,23.4234021 55.9552124,23.3819071 C57.6889532,23.0400623 59.3670493,22.4608287 60.9419027,21.6606357 C61.1497691,21.5586608 61.3456748,21.4340212 61.5260354,21.2889976 C61.7338142,22.0713936 62.208177,22.9281174 61.7847788,23.6166259 C61.5675909,23.9067912 61.2765748,24.1337041 60.9419027,24.2738386 C59.3670493,25.0740316 57.6889532,25.6532653 55.9552124,25.99511 C55.7963939,26.0301333 55.6318273,26.0301333 55.4730088,25.99511 C55.2344707,25.9039111 55.0377757,25.7285165 54.9202389,25.5022005 C54.2770381,24.5319271 53.8739438,23.423104 53.7441327,22.2669927 C53.6814071,21.7310513 53.6774867,21.1833741 53.5912389,20.6474328 C53.4584961,19.9785831 53.2629216,19.3236949 53.0071062,18.6914425 C52.6150708,17.5843521 52.2230354,16.4733496 51.8702035,15.3584352 C51.2195968,13.519757 50.6699316,11.6470513 50.2236549,9.74865526 Z" id="Path"></path>
                <path d="M49.8198584,20.400978 C49.8198584,20.5731051 49.8198584,20.7491443 49.8198584,20.9251834 C49.8276991,20.7491443 49.8237788,20.5770171 49.8198584,20.400978 Z" id="Path"></path>
                <path d="M21.385531,26.9809291 C21.8167699,28.1114914 21.8010885,29.3555012 21.7775664,30.5643032 C21.7775664,30.8811736 21.7775664,31.194132 21.7775664,31.5110024 C21.7443989,30.8585308 21.6122163,30.2148571 21.385531,29.601956 C21.2051947,29.1325183 20.9503717,28.6943765 20.7896372,28.2210269 C20.5151167,27.3924017 20.5261564,26.495971 20.821,25.6743276 C20.9817345,26.1202934 21.2130354,26.5388753 21.385531,26.9809291 Z" id="Path"></path>
                <path d="M0.80759292,0.375550122 L1.0310531,0.0860635697 L2.20715929,2.04205379 C2.68146653,2.91589991 3.26215763,3.72791939 3.9360354,4.4596577 C4.62220427,5.19309265 5.556842,5.64616958 6.55875221,5.73105134 C7.19038815,5.72475376 7.81577664,5.60550802 8.40523894,5.37897311 C11.1494867,4.4596577 13.6389115,3.000489 16.2459469,1.75647922 C16.7082248,1.48886554 17.2259877,1.33092377 17.7592035,1.29486553 C18.314738,1.28406947 18.8103729,1.64144067 18.9745133,2.17114914 C19.2724602,3.66943765 19.5664867,5.16381418 19.9742035,6.63471883 C20.3636254,8.02738386 20.7229912,9.42396088 21.0523009,10.8244499 C21.2732692,11.6841184 21.4305084,12.5588545 21.5227434,13.4415648 C21.5658673,13.9422983 21.5697876,14.4469438 21.573708,14.9476773 L21.6325133,21.0229829 C21.6328156,21.1121846 21.6249421,21.2012269 21.6089912,21.2889976 L21.573708,17.5687042 C21.573708,17.0640587 21.573708,16.5633252 21.5227434,16.0625917 C21.4305084,15.1798814 21.2732692,14.3051452 21.0523009,13.4454768 C20.717764,12.0449878 20.3583982,10.6484108 19.9742035,9.25574572 C19.5821681,7.78484108 19.2724602,6.29046455 18.9745133,4.78826406 C18.8100786,4.25929736 18.3140759,3.9032575 17.7592035,3.91589242 C17.2188921,3.94477867 16.6927419,4.09880427 16.2224248,4.36577017 C13.6271504,5.60977995 11.1259646,7.06894866 8.38171681,7.98435208 C7.79300502,8.21396512 7.16728748,8.33459925 6.53523009,8.3403423 C5.53331988,8.25546053 4.59868215,7.8023836 3.91251327,7.06894866 C3.23953101,6.33648595 2.6589221,5.52458141 2.18363717,4.65134474 C1.70927434,3.84938875 1.23099115,3.05134474 0.752707965,2.24938875 C0.486123894,1.80342298 0.129371681,1.28704156 0.278345133,0.786308068 C0.497195816,0.714844549 0.684309081,0.569622855 0.80759292,0.375550122 Z" id="Path"></path>
            </g>
            <g id="Group" opacity="0.1" transform="translate(242.277876, 168.215159)" fill="#000000">
                <path d="M1.86216814,1.400489 C1.80339353,1.06122627 1.6810313,0.736066339 1.50149558,0.44205379 C1.61126549,0.397718011 1.7210354,0.350774246 1.83080531,0.301222494 C1.91564407,0.661758601 1.92631346,1.03572041 1.86216814,1.400489 Z" id="Path"></path>
                <path d="M3.18724779,6.88508557 C3.33622124,7.87481663 3.10492035,9.16185819 3.97131858,9.62347188 C4.68482301,10.0146699 5.53946018,9.46308068 6.24120354,9.799511 C6.9429469,10.1359413 7.08015929,10.9066015 7.41730973,11.5638142 C7.93087611,12.6200489 8.29154867,13.3828851 9.50685841,13.6684597 C12.4392832,14.3491443 15.9872035,12.0176039 17.2377965,9.50220049 C18.2218053,7.52665037 18.3119735,5.24205379 18.3786195,3.03569682 C18.3786195,2.92616137 18.3786195,2.8205379 18.3786195,2.71100244 C18.3786195,3.13740831 18.3786195,3.56772616 18.3786195,3.99022005 C18.3119735,6.19657702 18.2218053,8.48117359 17.2377965,10.4567237 C15.9872035,12.9721271 12.4392832,15.2997555 9.50685841,14.6190709 C8.29154867,14.3374083 7.93871681,13.5706601 7.41730973,12.5144254 C7.09584071,11.8572127 6.97823009,11.0943765 6.24120354,10.7501222 C5.50417699,10.405868 4.67306195,10.9613692 3.97131858,10.5779951 C3.08923894,10.1046455 3.32053982,8.81369193 3.18724779,7.8396088 C2.87753982,5.80146699 0.576292035,4.59657702 0.0509646018,2.60929095 C0.192597948,2.62827045 0.335380381,2.63742038 0.478283186,2.63667482 C1.32115929,4.08801956 2.93242478,5.20684597 3.18724779,6.88508557 Z" id="Path"></path>
            </g>
            <path d="M92.3008142,288.015648 C91.2219609,287.435064 90.0595284,287.024661 88.854823,286.799022 C89.7292457,286.677507 90.5920658,286.483852 91.4344159,286.220049 C93.6729381,285.51198 94.802,284.565281 93.9552035,284.099756 C93.1084071,283.63423 90.6033009,283.829829 88.3647788,284.537897 C87.6090489,284.756839 86.8864033,285.076598 86.2164248,285.488509 C85.9851239,284.999511 85.3578673,284.432274 84.3738584,283.892421 C82.3862389,282.800978 79.7125575,282.253301 78.4031593,282.664059 C77.0937611,283.074817 77.646531,284.295355 79.6380708,285.402445 C80.610332,285.923933 81.6498036,286.309611 82.7273097,286.548655 C82.0118047,286.636373 81.302243,286.767008 80.6024779,286.939853 C78.1679381,287.522738 76.7566106,288.406846 77.4661947,288.895844 C78.1757788,289.384841 80.7083274,289.337897 83.1467876,288.755012 C84.0334852,288.562182 84.892281,288.258566 85.7028584,287.851345 C85.9027965,288.35599 86.5418142,288.958435 87.5767876,289.525672 C89.5644071,290.613203 92.2380885,291.164792 93.5474867,290.754034 C94.856885,290.343276 94.2884336,289.103178 92.3008142,288.015648 Z" id="Path" fill="#6C63FF"></path>
            <path d="M63.094177,250.413692 C62.4168138,250.049866 61.6866751,249.793807 60.9301416,249.654768 C61.4805864,249.580063 62.0235887,249.458345 62.5531681,249.290954 C63.9527345,248.8489 64.6623186,248.254279 64.1213097,247.964792 C63.5803009,247.675306 62.0278407,247.796577 60.624354,248.238631 C60.1524812,248.375256 59.7014259,248.575297 59.2835929,248.833252 C58.9969708,248.393808 58.5882944,248.047175 58.1074867,247.835697 C56.8647345,247.1511 55.1907434,246.806846 54.3713894,247.053301 C53.5520354,247.299756 53.9009469,248.074328 55.1554602,248.758924 C55.7728359,249.08618 56.4324195,249.327072 57.1156372,249.474817 C56.6659824,249.528095 56.2196701,249.606457 55.7787965,249.709535 C54.2537788,250.07335 53.3716991,250.628851 53.8186195,250.941809 C54.2655398,251.254768 55.8454425,251.21956 57.3704602,250.855746 C57.9252424,250.735822 58.4626514,250.546553 58.9699646,250.292421 C59.2418903,250.755569 59.6535194,251.121136 60.1460708,251.336919 C61.3927434,252.021516 63.0667345,252.36577 63.8860885,252.119315 C64.7054425,251.872861 64.3408496,251.098289 63.094177,250.413692 Z" id="Path" fill="#6C63FF"></path>
            <ellipse id="Oval" fill="#6C63FF" cx="302.443549" cy="305.603912" rx="12.658823" ry="2.42933985"></ellipse>
            <ellipse id="Oval" fill="#3F3D56" cx="302.23185" cy="304.571149" rx="1.4740531" ry="1.92469438"></ellipse>
            <ellipse id="Oval" fill="#3F3D56" cx="302.23185" cy="302.220049" rx="1.4740531" ry="1.92469438"></ellipse>
            <ellipse id="Oval" fill="#3F3D56" cx="302.23185" cy="299.865037" rx="1.4740531" ry="1.92469438"></ellipse>
            <ellipse id="Oval" fill="#3F3D56" cx="302.23185" cy="297.513936" rx="1.4740531" ry="1.92469438"></ellipse>
            <ellipse id="Oval" fill="#3F3D56" cx="302.23185" cy="295.158924" rx="1.4740531" ry="1.92469438"></ellipse>
            <ellipse id="Oval" fill="#3F3D56" cx="302.23185" cy="292.807824" rx="1.4740531" ry="1.92469438"></ellipse>
            <ellipse id="Oval" fill="#3F3D56" cx="302.23185" cy="290.452812" rx="1.4740531" ry="1.92469438"></ellipse>
            <path d="M307.747788,274.3511 C307.948974,274.095306 308.132354,273.826053 308.296637,273.545232 L304.423327,272.911491 L308.610265,272.942787 C309.422274,271.179739 309.471892,269.161043 308.747478,267.360391 L303.12569,270.270905 L308.308398,266.46846 C306.982277,264.194156 304.496063,262.847387 301.862351,262.976671 C299.22864,263.105956 296.886897,264.689721 295.790878,267.082924 C294.694859,269.476126 295.027448,272.279433 296.653186,274.3511 C296.339144,274.750416 296.068432,275.181843 295.845593,275.638142 L300.875407,278.243521 L295.512363,276.447922 C295.266351,277.176537 295.140569,277.940188 295.139929,278.709046 C295.136972,280.289297 295.670356,281.823981 296.653186,283.063081 C294.380292,285.950354 294.712069,290.09572 297.415391,292.586419 C300.118714,295.077118 304.28618,295.077118 306.989503,292.586419 C309.692825,290.09572 310.024602,285.950354 307.751708,283.063081 C309.7669,280.506694 309.765279,276.90568 307.747788,274.3511 Z" id="Path" fill="#6C63FF"></path>
            <path d="M295.139929,278.705134 C295.136972,280.285385 295.670356,281.820069 296.653186,283.059169 C294.380292,285.946442 294.712069,290.091808 297.415391,292.582507 C300.118714,295.073206 304.28618,295.073206 306.989503,292.582507 C309.692825,290.091808 310.024602,285.946442 307.751708,283.059169 C308.696513,281.862103 295.139929,277.914914 295.139929,278.705134 Z" id="Path" fill="#000000" opacity="0.1"></path>
        </g>
    </g>
</svg>