<?xml version="1.0" encoding="UTF-8"?>
<svg width="578px" height="343px" viewBox="0 0 578 343" version="1.1" xmlns="http://www.w3.org/2000/svg" xmlns:xlink="http://www.w3.org/1999/xlink">
    <!-- Generator: Sketch 52.6 (67491) - http://www.bohemiancoding.com/sketch -->
    <title>Artboard 1 Copy</title>
    <desc>Created with Sketch.</desc>
    <defs>
        <linearGradient x1="50.0415695%" y1="133.977807%" x2="50.0415695%" y2="-3.13550493%" id="linearGradient-1">
            <stop stop-color="#00B83D" offset="0%"></stop>
            <stop stop-color="#55CD48" offset="50%"></stop>
            <stop stop-color="#A3DC39" offset="100%"></stop>
        </linearGradient>
        <linearGradient x1="-0.0861310868%" y1="49.9834642%" x2="100.008674%" y2="49.9834642%" id="linearGradient-2">
            <stop stop-color="#AB0634" offset="0%"></stop>
            <stop stop-color="#820024" offset="100%"></stop>
        </linearGradient>
        <linearGradient x1="49.9490578%" y1="133.990739%" x2="49.9490578%" y2="-3.15554705%" id="linearGradient-3">
            <stop stop-color="#D11242" offset="0%"></stop>
            <stop stop-color="#ED1849" offset="50%"></stop>
            <stop stop-color="#ED1849" offset="100%"></stop>
        </linearGradient>
    </defs>
    <g id="Page-1" stroke="none" stroke-width="1" fill="none" fill-rule="evenodd">
        <g id="Artboard-1-Copy" transform="translate(7.000000, 8.000000)">
            <path d="M122.28949,-4 L398.71051,-4 C402.070477,-4 405.072397,-1.90048968 406.225041,1.25558162 L522.689687,320.149061 C524.205387,324.299221 522.069735,328.892309 517.919575,330.40801 C517.04022,330.729163 516.111321,330.893479 515.175156,330.893479 L5.82484371,330.893479 C1.40656571,330.893479 -2.17515629,327.311757 -2.17515629,322.893479 C-2.17515629,321.957315 -2.01084013,321.028415 -1.68968673,320.149061 L114.774959,1.25558162 C115.927603,-1.90048968 118.929523,-4 122.28949,-4 Z" id="Mask" stroke="#166EB9" stroke-width="8" fill="#EFEAE4"></path>
            <g id="Objects" transform="translate(12.006912, 10.200000)">
                <g id="Group">
                    <polygon id="Path" fill="#C8E0AE" points="232.707028 18.576 322.903652 6.786 314.236325 4.692 196.819251 4.692"></polygon>
                    <polygon id="Path" fill="#C8E0AE" points="203.361763 67.176 251.146106 57.72 359.403664 130.53 338.197523 140.574 280.707454 91.476"></polygon>
                    <path d="M85.630265,23.952 C57.2470369,24.81962 42.2245178,24.54762 40.5627078,23.136 C39.4594769,22.1988635 37.2953305,13.4799905 46.884325,11.892 C51.9484219,11.0533575 66.7684396,10.2293575 91.3443779,9.42 C91.3443779,9.42 150.751567,5.91 162.462062,7.722 C174.466671,9.582 177.467823,7.566 183.644194,7.722 C189.820565,7.878 198.986083,11.778 194.124217,15 C188.205945,18.78 182.815876,18.81 173.218191,17.598 C163.764562,16.398 159.22682,15.06 151.651912,17.43 C131.87432,24 89.7058295,23.592 85.630265,23.952 Z" id="Path" fill="#A4C3E5"></path>
                    <path d="M388.892984,103.014 C381.480138,99.69 372.902846,99.222 367.932938,93.72 C363.131094,88.428 361.126325,87.564 357.452915,85.434 C353.779505,83.304 349.331797,85.08 342.129032,82.92 C332.123191,79.71 327.123272,82.188 332.723422,89.622 C338.125495,97.458 352.104862,97.362 355.208053,100.632 C358.311244,103.902 361.666532,119.232 386.93023,110.91 C386.93023,110.91 395.849654,108.114 388.892984,103.014 Z" id="Path" fill="#A4C3E5"></path>
                    <polygon id="Path" fill="#C8B39E" points="358.515323 180.078 320.412696 203.934 296.481509 191.574 341.048618 164.994"></polygon>
                    <polygon id="Path" fill="#EFEAE4" opacity="0.6" style="mix-blend-mode: multiply;" points="427.859942 289.434 336.28879 249.972 350.556267 221.244 327.057247 208.554 362.885 184.854 419.828859 233.232"></polygon>
                    <polygon id="Path" fill="#C8B39E" points="205.384539 132.54 194.046187 129.132 199.112131 122.538 210.234401 125.784"></polygon>
                    <polygon id="Path" fill="#C8B39E" points="188.848191 155.67 176.795565 151.668 182.725841 143.952 194.538376 147.744"></polygon>
                    <polygon id="Path" fill="#C8B39E" points="229.981982 139.14 217.989378 135.75 222.479101 128.778 234.219608 132"></polygon>
                    <polygon id="Path" fill="#C8B39E" points="223.025311 151.11 210.618548 147.426 215.480415 139.866 227.623076 143.358"></polygon>
                    <polygon id="Path" fill="#C8B39E" points="175.649124 135.678 164.448825 132.372 170.217039 125.568 181.195253 128.712"></polygon>
                    <polygon id="Path" fill="#C8B39E" points="211.740979 89.25 200.546682 86.82 206.308894 80.016 217.293111 83.334"></polygon>
                    <polygon id="Path" fill="#C8B39E" points="366.222281 164.478 356.234447 156.156 372.188571 146.136 381.348088 153.834"></polygon>
                    <polygon id="Path" fill="#C8B39E" points="127.108491 124.638 118.651244 119.664 126.06409 114.156 134.47932 118.926"></polygon>
                    <polygon id="Path" fill="#C8B39E" points="111.988687 115.716 103.525438 110.742 110.938283 105.234 119.353514 110.004"></polygon>
                    <polygon id="Path" fill="#C8B39E" points="148.368652 90.504 140.361578 87.48 159.46091 78.264 165.745323 80.334"></polygon>
                    <polygon id="Path" fill="#C8B39E" points="215.492419 163.662 202.659493 159.66 207.941521 151.458 220.486336 155.244"></polygon>
                    <polygon id="Path" fill="#C8B39E" points="321.018929 21.504 366.738479 14.454 374.06129 17.61 405.063191 14.718 405.55538 19.41 333.155588 26.604"></polygon>
                    <polygon id="Path" fill="#C8B39E" points="314.980611 16.14 296.361463 18.864 292.874124 17.766 311.421244 15.078"></polygon>
                    <polygon id="Path" fill="#C8B39E" points="346.720795 10.872 328.10765 13.596 324.614309 12.498 343.161429 9.804"></polygon>
                    <polygon id="Path" fill="#C8B39E" points="381.384101 4.44 362.770956 7.164 359.277615 6.066 377.824735 3.372"></polygon>
                    <polygon id="Path" fill="#C8B39E" points="282.015956 21.204 262.20235 24.108 258.84106 22.938 278.570634 20.07"></polygon>
                    <polygon id="Path" fill="#C8B39E" points="185.504908 24.684 203.013629 25.638 200.8528 27.48 182.82788 26.394"></polygon>
                    <polygon id="Path" fill="#C8B39E" points="157.120012 23.088 174.376636 24.03 171.927696 25.854 154.178882 24.78"></polygon>
                    <polygon id="Path" fill="#C8B39E" points="108.639401 64.224 147.516325 58.854 150.691544 64.92 108.957523 72.948"></polygon>
                    <polygon id="Path" fill="#C8B39E" points="202.167304 50.928 230.504182 45.498 233.949505 48.654 204.274113 55.344"></polygon>
                    <polygon id="Path" fill="#C8B39E" points="317.729666 40.638 327.225311 40.362 333.689793 45.216 324.140127 45.522"></polygon>
                    <polygon id="Path" fill="#C8B39E" points="279.350933 31.374 286.277592 30.312 292.153848 34.68 283.462512 35.088"></polygon>
                    <polygon id="Path" fill="#C8B39E" points="344.193825 40.092 352.717097 39.756 360.093929 44.628 351.666694 45.036"></polygon>
                    <polygon id="Path" fill="#EFEAE4" style="mix-blend-mode: multiply;" points="197.449493 34.776 202.617477 29.904 158.050369 28.026 96.2326382 30.354 95.2362558 39.03 139.059078 42.69 170.889297 34.758"></polygon>
                    <polygon id="Path" fill="#EFEAE4" style="mix-blend-mode: multiply;" points="179.214493 109.812 197.689585 92.364 241.182281 101.292 248.559113 89.472 275.413422 96.282 293.828491 112.284 256.956336 131.16"></polygon>
                    <polygon id="Path" fill="#EFEAE4" opacity="0.6" style="mix-blend-mode: multiply;" points="288.768548 22.938 405.987546 2.91 405.777465 22.92 305.166843 32.544"></polygon>
                    <polygon id="Path" fill="#EFEAE4" opacity="0.6" style="mix-blend-mode: multiply;" points="269.717235 53.736 277.490219 51.366 290.533226 53.178 308.750219 77.052"></polygon>
                    <path d="M246.266233,21.516 C246.866463,21.516 269.195035,18.48 310.346832,12.804 L322.387454,16.362 L307.981924,18.726 L247.706786,28.614 C246.776429,28.764 246.218214,29.352 246.458306,29.928 C246.835554,30.4849423 247.487259,30.7911031 248.156959,30.726 C248.311725,30.7261743 248.466264,30.7141369 248.619136,30.69 L266.283917,27.756 L277.148088,37.404 L242.124643,38.484 C241.098249,38.484 240.287938,39.084 240.323952,39.738 C240.359965,40.392 241.146267,40.89 242.124643,40.89 L242.214677,40.89 L328.227696,38.208 L353.803514,56.1 C354.415318,56.5210776 355.137634,56.7527143 355.880311,56.766 C356.216401,56.7786764 356.549848,56.7020753 356.846682,56.544 C357.560956,56.118 357.356878,55.236 356.396509,54.576 L332.387293,38.082 L354.049608,37.404 L384.94947,58.44 C385.634215,58.9015737 386.434964,59.1614571 387.260357,59.19 C387.563855,59.1993939 387.864949,59.1334261 388.136694,58.998 C388.850968,58.596 388.574862,57.708 387.536463,57.006 L358.101164,37.278 L391.113836,36.438 C392.104217,36.402 392.500369,35.838 392.002177,35.238 C391.30486,34.5230459 390.341809,34.1297154 389.343157,34.152 L311.061106,36.36 L306.829482,33.552 L406.755841,23.952 C407.644182,23.868 407.920288,23.352 407.356071,22.752 C406.652468,22.1316562 405.728818,21.8202875 404.793088,21.888 L332.387293,28.8 L312.285576,20.112 L406.983929,3.75 C407.740219,3.624 407.908283,3.15 407.356071,2.688 C406.677032,2.19533921 405.835318,1.98069872 405.003168,2.088 L326.372984,15.714 L314.518433,12.228 C321.535127,11.262 368.347097,3.228 376.288145,2.118 C377.05644,2.01 377.302535,1.566 376.840357,1.122 C376.213828,0.639708096 375.422195,0.424087031 374.637512,0.522 C367.434747,1.506 319.110196,9.738 309.566532,11.04 C281.259666,14.892 248.036912,19.398 246.092166,19.59 C245.263848,19.644 244.603594,20.052 244.59159,20.544 C244.579585,21.036 245.335876,21.516 246.266233,21.516 Z M281.319689,37.278 L269.717235,27.186 L288.366394,24.084 L306.715438,36.498 L281.319689,37.278 Z M328.095645,29.184 L303.780311,31.524 L291.739689,23.526 L308.684194,20.706 L328.095645,29.184 Z" id="Shape" fill="#FFFFFF" fill-rule="nonzero"></path>
                    <path d="M427.277719,98.718 C425.903191,97.674 424.114505,97.242 423.26818,97.752 L406.953917,107.586 L365.790115,82.872 L393.148618,87.6 C393.346554,87.6368041 393.547519,87.654884 393.748848,87.654 C394.188367,87.6909346 394.623398,87.5430807 394.949309,87.246 C395.273911,86.8012406 395.254115,86.1927377 394.90129,85.77 L377.578641,58.2 C376.859622,57.2917599 375.771955,56.7525369 374.613502,56.73 C373.503076,56.73 372.986878,57.366 373.473065,58.164 L388.742926,83.364 L377.83674,81.516 L366.138249,64.896 C365.520582,64.135013 364.632181,63.642602 363.659297,63.522 L334.139965,59.658 L300.112903,55.2 L293.510369,47.364 C292.805078,46.6601753 291.776767,46.3877433 290.815334,46.65 C289.890979,46.92 289.578859,47.682 290.131071,48.36 L309.998698,72.6 C310.46535,73.1316115 311.101512,73.4856057 311.799389,73.602 L357.056763,81.402 L403.430565,109.716 L339.482016,148.26 L277.058053,94.914 C276.764851,94.6686034 276.426328,94.4830992 276.061671,94.368 L182.605795,64.716 C181.505336,64.4366825 180.339939,64.7767465 179.562627,65.604 C178.866359,66.42 179.100449,67.344 180.096832,67.662 L195.906901,72.768 L165.073065,99.048 L153.158491,95.22 L179.520611,79.2 C180.123025,78.8820311 180.548966,78.3084447 180.679055,77.64 C180.738722,77.06319 180.393066,76.5212904 179.844735,76.332 L162.834205,69.06 C161.707511,68.7181349 160.483948,69.0067298 159.628975,69.816 C158.758641,70.638 158.794654,71.616 159.719009,72.03 L174.292604,78.39 L149.082926,93.444 C148.923336,93.5387723 148.770873,93.6450542 148.626751,93.762 L129.047235,87.468 C128.365155,87.29627 127.64537,87.3553499 127.000449,87.636 L90.8785829,101.166 L96.4667281,85.668 C96.8268664,84.678 95.9985484,84.054 94.6240207,84.276 C93.2494931,84.498 91.8149424,85.476 91.4307949,86.478 L71.2870622,139.2 L71.2450461,139.26 C71.1013128,139.527258 70.9981449,139.814399 70.9389286,140.112 L6.71427419,308.412 C5.39976959,311.85 6.11404378,314.214 8.21485023,314.214 C8.59391518,314.210278 8.97026544,314.149599 9.3312788,314.034 C12.2904147,313.128 15.8497811,309.162 17.2663249,305.238 L76.2269585,141.696 L127.246544,136.158 C128.229889,136.047189 129.152599,135.626981 129.881555,134.958 L199.874424,74.04 L246.194205,89.004 L239.957811,98.826 L196.609171,90 C195.580376,89.8229918 194.53066,90.1667712 193.806094,90.918 L134.761429,153.24 C133.999081,153.99496 133.538149,155.001796 133.464931,156.072 C133.404277,156.927858 133.92616,157.717764 134.737419,157.998 L213.637707,185.07 C213.849275,185.350657 214.111981,185.588833 214.412005,185.772 C214.83854,186.025753 215.326193,186.15851 215.822546,186.156 C216.061712,186.153574 216.299641,186.121325 216.530818,186.06 L263.834977,202.26 C264.149839,202.368631 264.480274,202.425371 264.813353,202.428 C265.355117,202.426484 265.885524,202.272621 266.34394,201.984 L286.151544,189.702 C286.365487,189.606779 286.567044,189.485891 286.751774,189.342 L305.112823,177.942 C305.402901,177.830336 305.669571,177.665512 305.899124,177.456 L340.472396,156.012 L434.468479,238.284 C435.818998,239.484 437.193525,240.084 438.27394,240.084 C439.15071,240.145214 439.952102,239.588698 440.20068,238.746 C440.80091,236.82 439.312339,233.532 436.833387,231.414 L345.1722,153.12 L428.262097,101.58 C429.108422,101.058 428.664251,99.768 427.277719,98.718 Z M372.608733,80.622 L347.182972,76.32 L337.82538,63.042 L362.897005,66.372 L372.608733,80.622 Z M329.716267,73.362 C326.529044,69.252 322.35144,63.726 320.316659,60.714 L333.125576,62.4 L342.038998,75.426 L329.716267,73.362 Z M302.789931,58.362 L315.694885,60.078 C317.381532,62.916 321.697189,68.796 324.43424,72.438 L313.029862,70.506 L302.789931,58.362 Z M126.460242,91.464 L160.781417,102.72 L148.536717,113.154 L114.041475,96.366 L126.460242,91.464 Z M127.936809,130.716 L78.2557373,136.116 L89.2639631,105.6 L107.354908,99 L143.83091,117.186 L127.936809,130.716 Z M196.273041,94.248 L240.52803,103.416 C241.61765,103.657759 242.744204,103.207786 243.36712,102.282 L250.617903,90.444 L274.152938,98.046 L289.584862,111.552 L256.530173,128.286 L199.508283,113.748 C199.278768,113.651668 199.035871,113.590967 198.788007,113.568 L182.329689,109.368 L196.273041,94.248 Z M191.621256,169.494 L221.134585,124.674 L240.089862,129.6 L215.096267,177.342 L191.621256,169.494 Z M165.595265,160.8 L198.794009,118.86 L215.894574,123.312 L185.751002,167.532 L165.595265,160.8 Z M178.440196,113.58 L193.740069,117.558 L160.00712,158.958 L142.08424,152.958 L178.440196,113.58 Z M264.099078,193.722 L221.320657,179.4 L245.551959,131.004 L255.581809,133.608 L261.872224,139.548 L250.954032,165.936 C250.265718,167.591398 250.850004,169.502187 252.346567,170.49 L277.250127,185.772 L264.099078,193.722 Z M284.176786,181.614 L257.946717,165.93 L266.5,143.958 L297.711982,173.43 L284.176786,181.614 Z M303.324136,170.076 L261.698157,131.862 L293.798479,115.236 L334.770207,151.098 L303.324136,170.076 Z" id="Shape" fill="#FFFFFF" fill-rule="nonzero"></path>
                    <path d="M135.283629,43.608 L178.188099,48.6 C178.292053,48.605974 178.396265,48.605974 178.500219,48.6 C179.40685,48.6257831 180.270806,48.2151708 180.823111,47.496 C181.249274,46.782 180.775092,46.116 179.766705,46.002 L143.75288,41.862 L170.763249,35.862 L197.173387,35.862 L243.631221,35.898 C244.639608,35.898 245.461924,35.382 245.473929,34.752 C245.485933,34.122 244.687627,33.618 243.673237,33.612 L200.678733,33.612 L214.880184,20.4 C215.396382,19.914 215.1803,19.326 214.4,19.092 C213.592507,18.8614319 212.723448,19.0284945 212.059101,19.542 L201.879194,28.8 L176.669516,27.75 L187.077512,21.342 C187.779781,20.91 187.839804,20.304 187.215565,19.992 C186.424169,19.6943287 185.54015,19.7738598 184.814643,20.208 L172.647972,27.564 L158.728629,26.964 L158.488537,26.964 L140.589666,27.708 L160.931475,19.686 C161.807811,19.338 162.203963,18.738 161.813813,18.348 C161.423664,17.958 160.421279,17.916 159.550945,18.258 L134.677396,27.954 L87.4392627,29.862 C86.4795711,29.8791816 85.5695567,30.2916789 84.9242972,31.002 C84.5281452,31.602 85.0203341,32.052 86.0287212,32.01 L157.486152,29.094 L199.628329,30.894 L196.627177,33.66 L171.363479,33.66 C171.133544,33.6608319 170.904285,33.6849552 170.679217,33.732 L136.85023,41.112 L78.6278802,36.138 C77.5654165,36.1010411 76.5308801,36.4823799 75.7467742,37.2 C75.1045276,37.866 75.368629,38.472 76.3470046,38.556 L125.505876,42.798 L99.9360599,56.292 C98.7656106,56.892 98.2133986,57.828 98.7355991,58.338 C99.0315551,58.576011 99.407338,58.6919223 99.7860023,58.662 C100.48631,58.6421224 101.171676,58.4549023 101.78477,58.116 L129.743502,43.116 L135.283629,43.608 Z" id="Path" fill="#FFFFFF"></path>
                    <path d="M407.788237,56.964 L277.778329,43.296 C277.163059,43.2215671 276.540195,43.2377391 275.92962,43.344 L254.663456,47.238 L242.490783,39.6 L251.716325,32.808 C252.390253,32.4074752 252.740713,31.6276419 252.592661,30.858 C252.291089,30.0467084 251.623288,29.4258914 250.79197,29.184 L196.669194,7.158 C195.288664,6.612 194.31629,6.246 192.983779,7.08 C191.651267,7.914 192.545611,8.214 193.926141,8.772 L242.706866,31.704 L234.687788,37.344 L28.7092857,69.724 C26.0202535,70.048 21.6625806,73.426 20.6902074,75.196 C19.8198733,76.786 19.3877074,79.744 21.5965553,79.744 C21.9116251,79.7438145 22.2263698,79.7237748 22.5389171,79.684 L235.233998,42.726 L245.11379,49.2 L8.62557604,100.72 C5.34831797,101.416 1.92700461,103.81 0.984642857,106.12 C0.204343318,108.01 -0.5459447,111.682 1.7649424,111.682 C2.37121053,111.675147 2.97495625,111.602726 3.56563364,111.466 L252.436601,54.066 L543.050161,248.874 C546.531498,251.178 549.652696,252.336 551.873548,252.336 C554.27447,252.336 558.65015,248.778 558.368041,246.228 C557.833836,241.374 557.851843,233.94 550.883168,229.602 L262.340403,52.062 L278.108456,49.062 L413.844562,66.618 C416.719666,66.966 417.133825,64.44 416.065415,62.568 C414.997005,60.696 410.513283,57.282 407.788237,56.964 Z" id="Path" fill="#FFD478"></path>
                    <path d="M406.719827,296.964 C405.739921,296.942884 404.774327,296.724536 403.880737,296.322 L62.421659,155.118 C60.7590207,154.398 60.7170046,152.676 62.3016129,151.272 C63.8862212,149.868 66.4432028,149.34 68.0818318,150.024 L406.653802,287.118 C410.00909,288.522 410.759378,290.934 410.615323,293.832 C410.507281,295.92 408.826636,296.964 406.719827,296.964 Z" id="Path" fill="#FFFFFF"></path>
                    <polygon id="Path" fill="#FFFFFF" points="117.912961 173.742 112.168756 171.936 123.777212 132.702 129.515415 134.508"></polygon>
                    <polygon id="Path" fill="#EFEAE4" opacity="0.6" style="mix-blend-mode: multiply;" points="81.0648157 172.092 302.513825 267 43.2142857 277.2"></polygon>
                </g>
                <polygon id="Path" fill="#00568B" points="257.670611 52.182 189.274355 67.56 189.274355 65.46 257.670611 50.082"></polygon>
                <polygon id="Path" fill="#00568B" points="332.873479 38.946 243.88932 41.598 242.478779 40.746 332.873479 37.434"></polygon>
                <polygon id="Path" fill="#0068B3" points="249.327408 50.778 233.907488 40.194 233.907488 38.256 249.327408 48.81"></polygon>
                <polygon id="Path" fill="#00568B" points="202.6775 73.998 128.218917 137.724 127.048468 136.398 202.6775 71.052"></polygon>
                <polygon id="Path" fill="#00568B" points="210.96068 219.18 113.501267 173.94 112.64894 171.84 210.750599 214.698"></polygon>
                <path d="M215.438399,210.936 L116.964597,169.722 L127.048468,136.398 L202.6775,71.052 L189.274355,65.46 L257.700622,50.082 L242.490783,40.746 L332.885484,37.434 C332.885484,37.434 331.150818,35.946 331.132811,35.946 L233.895484,38.256 L249.315403,48.81 L177.791947,63.936 L195.882892,72 L123.951279,135.51 L112.64894,171.84 L210.744597,214.698 L215.438399,210.936 Z" id="Path" fill="#008DE8"></path>
                <polygon id="Path" fill="#0068B3" points="215.768525 215.064 210.96068 219.18 210.750599 214.698 215.438399 210.936"></polygon>
                <polygon id="Path" fill="#0068B3" points="194.62841 73.044 177.665899 66.156 177.665899 63.9 195.882892 71.97"></polygon>
                <polygon id="Path" fill="#0068B3" points="128.218917 137.724 117.888952 170.148 116.964597 169.722 127.048468 136.398"></polygon>
                <path d="M217.575219,223.302 C231.272477,210.102 238.115104,199.686 241.506406,192.174 C246.931551,182.336711 245.736125,170.175583 238.499244,161.582003 C231.262364,152.988423 219.478609,149.737161 208.856552,153.403272 C198.234495,157.069382 190.967831,166.895731 190.576855,178.122 L190.522834,178.122 C190.522834,178.122 185.456889,194.952 214.183917,223.302 L217.575219,223.302 Z M216.77091,189.702 C210.903394,189.702 206.146832,184.947264 206.146832,179.082 C206.146832,173.216736 210.903394,168.462 216.77091,168.462 C222.638427,168.462 227.394988,173.216736 227.394988,179.082 C227.396581,181.899639 226.277965,184.602419 224.285391,186.595353 C222.292817,188.588287 219.589631,189.708 216.77091,189.708 L216.77091,189.702 Z" id="Shape" fill="#3C882B" fill-rule="nonzero"></path>
                <path d="M260.155565,204.552 C245.473929,204.552 226.062477,207.612 216.206694,211.434 L216.158675,211.434 C216.158675,211.434 202.527442,215.574 214.183917,223.302 C236.350426,219.84 249.891624,217.098 258.108779,215.124 C262.119492,214.300702 266.056122,213.150869 269.879297,211.686 C279.518998,207.744 275.167327,204.552 260.155565,204.552 Z M235.348041,214.698 C229.015611,214.698 227.178906,213.348 231.248468,211.698 C235.31803,210.048 243.739263,208.698 250.065691,208.698 C256.39212,208.698 258.234827,210.048 254.171267,211.698 C250.107707,213.348 241.680472,214.698 235.348041,214.698 Z" id="Shape" fill="#D1D3D4" fill-rule="nonzero" opacity="0.6" style="mix-blend-mode: multiply;"></path>
                <path d="M214.279954,151.926 C199.657106,151.930229 187.666002,163.513465 187.161544,178.122 L187.107523,178.122 C187.107523,178.122 183.60818,193.884 214.159908,223.302 C227.857166,210.102 234.699793,199.686 238.091094,192.174 C242.723061,183.759678 242.564328,173.525467 237.673638,165.258728 C232.782948,156.991989 223.887779,151.922378 214.279954,151.926 Z M214.279954,190.548 C207.94834,190.548 202.815553,185.417183 202.815553,179.088 C202.815553,172.758817 207.94834,167.628 214.279954,167.628 C220.611568,167.628 225.744355,172.758817 225.744355,179.088 C225.744355,185.417183 220.611568,190.548 214.279954,190.548 Z" id="Shape" fill="url(#linearGradient-1)" fill-rule="nonzero"></path>
                <path d="M333.467707,39.186 C340.184286,32.724 343.539574,27.606 345.202212,23.928 C347.855486,19.1061272 347.266032,13.149131 343.719157,8.94030105 C340.172282,4.73147104 334.39969,3.139069 329.195414,4.93384515 C323.991139,6.72862129 320.428798,11.5403217 320.232627,17.04 C320.232627,17.04 317.747673,25.29 331.835081,39.186 L333.467707,39.186 Z M333.077558,22.716 C330.969765,22.7184274 329.068168,21.4510791 328.259868,19.5051763 C327.451567,17.5592735 327.89583,15.3182364 329.385406,13.8275145 C330.874983,12.3367926 333.116367,11.8901174 335.063947,12.695864 C337.011528,13.5016107 338.281554,15.4010149 338.281555,17.508 C338.281557,20.3819575 335.952617,22.712689 333.077558,22.716 Z" id="Shape" fill="url(#linearGradient-2)" fill-rule="nonzero"></path>
                <path d="M354.343721,30 C347.140956,30 337.633306,31.5 332.801452,33.372 C332.801452,33.372 326.114885,35.406 331.835081,39.192 C342.699251,37.494 349.3378,36.15 353.365346,35.184 C355.333194,34.7816936 357.264484,34.2177808 359.139562,33.498 C363.839366,31.56 361.702546,30 354.343721,30 Z M342.183053,34.974 C339.079862,34.974 338.179516,34.314 340.172281,33.498 C342.165046,32.682 346.294631,32.022 349.397823,32.022 C352.501014,32.022 353.407362,32.682 351.414597,33.498 C349.421832,34.314 345.286244,34.968 342.183053,34.968 L342.183053,34.974 Z" id="Shape" fill="#D1D3D4" fill-rule="nonzero" opacity="0.6" style="mix-blend-mode: multiply;"></path>
                <path d="M331.865092,4.2 C324.698468,4.20525854 318.822014,9.8805558 318.569988,17.04 C318.569988,17.04 316.853329,24.768 331.835081,39.186 C338.52765,32.724 341.876935,27.6 343.539574,23.928 C345.808202,19.8029081 345.729087,14.7869273 343.331492,10.7353772 C340.933898,6.68382715 336.574246,4.19900457 331.865092,4.2 Z M331.865092,23.136 C328.758955,23.136 326.240933,20.6189449 326.240933,17.514 C326.240933,14.4090551 328.758955,11.892 331.865092,11.892 C334.971229,11.892 337.489251,14.4090551 337.489251,17.514 C337.489252,19.004496 336.896517,20.4338576 335.84161,21.4872345 C334.786702,22.5406115 333.35616,23.1315924 331.865092,23.13 L331.865092,23.136 Z" id="Shape" fill="url(#linearGradient-3)" fill-rule="nonzero"></path>
                <ellipse id="Oval" fill="#2D0200" cx="197.617558" cy="73.47" rx="9.6997235" ry="3.138"></ellipse>
                <ellipse id="Oval" fill="#2D0200" cx="197.617558" cy="71.61" rx="9.6997235" ry="3.138"></ellipse>
                <rect id="Rectangle" fill="#2D0200" x="187.917834" y="71.61" width="19.3934447" height="1.914"></rect>
                <ellipse id="Oval" fill="#FFFFFF" cx="197.647569" cy="71.61" rx="8.37321429" ry="2.532"></ellipse>
            </g>
        </g>
    </g>
</svg>