<?xml version="1.0" encoding="UTF-8"?>
<svg width="452px" height="300px" viewBox="0 0 452 300" version="1.1" xmlns="http://www.w3.org/2000/svg" xmlns:xlink="http://www.w3.org/1999/xlink">
    <!-- Generator: Sketch 52.6 (67491) - http://www.bohemiancoding.com/sketch -->
    <title>Group 7</title>
    <desc>Created with Sketch.</desc>
    <defs>
        <linearGradient x1="49.979976%" y1="99.9832306%" x2="49.979976%" y2="0.00138950177%" id="linearGradient-1">
            <stop stop-color="#808080" stop-opacity="0.25" offset="0%"></stop>
            <stop stop-color="#808080" stop-opacity="0.12" offset="54%"></stop>
            <stop stop-color="#808080" stop-opacity="0.1" offset="100%"></stop>
        </linearGradient>
    </defs>
    <g id="Page-1" stroke="none" stroke-width="1" fill="none" fill-rule="evenodd">
        <g id="Group-7">
            <path d="M258.683362,57.4213634 C230.879516,56.4551798 204.398844,47.4847021 179.112466,37.668277 C153.826088,27.8518519 128.767399,16.9747719 101.638028,11.7745572 C84.1832955,8.42941492 64.2239831,7.95705851 50.1588111,17.3097155 C36.6263458,26.3274289 32.2529967,41.8507783 29.8987773,56.2705314 C28.1331128,67.1175523 27.0934757,78.531401 31.9393871,88.6870639 C35.3031714,95.7380569 41.2789363,101.663983 45.4117082,108.41868 C59.7861936,131.916264 49.6261046,160.893183 34.0444373,183.836822 C26.741202,194.602254 18.2608571,204.878154 12.6201818,216.326355 C6.97950659,227.774557 4.37182199,240.91036 9.30365381,252.599034 C14.1968214,264.193237 25.8519257,272.884595 38.4779307,279.003757 C64.1165826,291.435319 94.3262005,294.990875 123.801199,297.004831 C189.023386,301.466452 254.597847,299.534085 319.991874,297.601718 C344.195655,296.884595 368.506837,296.158884 392.315384,292.41868 C405.53424,290.340311 419.186994,287.046699 428.784304,279.085346 C440.967819,268.981213 443.987921,251.869028 435.825482,239.201288 C422.129768,217.949544 384.273233,212.672034 374.688811,189.861514 C369.417593,177.309716 374.830579,163.327966 382.486088,151.682233 C398.914072,126.707461 426.447269,104.794418 427.899324,76.2469136 C428.896,56.6355341 415.65996,37.0026838 395.193718,27.7230274 C373.73939,18.0010735 343.993742,19.2206119 328.175794,35.3193773 C311.868099,51.8947933 283.230825,58.2716049 258.683362,57.4213634 Z" id="Path" fill="#6C63FF" opacity="0.1"></path>
            <path d="M26.6631287,130.026754 C26.6631287,130.026754 10.3167697,129.0391 12.2456831,140.487302 C12.2456831,140.487302 11.8633372,142.509846 13.6977381,143.428794 C13.6977381,143.428794 13.7278102,142.569964 15.3731862,142.870555 C15.9591359,142.969126 16.5547061,142.997954 17.1474427,142.956438 C17.950281,142.901028 18.713284,142.586011 19.3212292,142.05896 C19.3212292,142.05896 23.9136754,140.160946 25.70082,132.654774 C25.70082,132.654774 27.0239944,131.018703 26.9896263,130.597876 L24.2315809,131.774473 C24.2315809,131.774473 25.1724095,133.762664 24.4291979,135.415912 C24.4291979,135.415912 24.3432775,131.847474 23.8105709,131.933357 C23.7031704,131.933357 22.379996,132.62042 22.379996,132.62042 C22.379996,132.62042 23.9995958,136.085799 22.7752299,138.60217 C22.7752299,138.60217 23.2392002,134.333786 21.8730656,132.873775 L19.9312642,134.003137 C19.9312642,134.003137 21.8258093,137.584457 20.5412991,140.504478 C20.5412991,140.504478 20.8720927,136.025681 19.5231422,134.282256 L17.7617737,135.65209 C17.7617737,135.65209 19.5446223,139.177586 18.4577291,141.599486 C18.4577291,141.599486 18.3159604,136.386389 17.3794278,136.017092 C17.3794278,136.017092 15.8414524,137.36975 15.6094673,137.927989 C15.6094673,137.927989 16.8252412,140.504478 16.0691415,141.839959 C16.0691415,141.839959 15.6051713,138.365992 15.2099374,138.35311 C15.2099374,138.35311 13.676258,140.654774 13.5173052,142.217844 C13.5912378,140.759228 14.0459404,139.345378 14.8361836,138.116931 C13.9522663,138.284093 13.1367645,138.706595 12.4905562,139.332176 C12.4905562,139.332176 12.7268374,137.704693 15.2142334,137.562986 C15.2142334,137.562986 16.5030396,135.819562 16.8209452,135.712208 C16.8209452,135.712208 14.3464372,135.506089 12.847126,136.171682 C12.847126,136.171682 14.1660043,134.634376 17.2763234,135.312852 L18.9947317,133.895783 C18.9947317,133.895783 15.7383479,133.466368 14.3550292,133.943018 C14.3550292,133.943018 15.9445569,132.581773 19.4629979,133.573722 L21.353247,132.440066 C21.353247,132.440066 18.5780176,131.843179 16.9240496,132.057887 C16.9240496,132.057887 18.6682341,131.117468 21.9074337,132.139476 L23.2606803,131.529707 C23.2606803,131.529707 21.2243664,131.130351 20.6315156,131.070233 C20.0386647,131.010115 20.0042965,130.842643 20.0042965,130.842643 C21.2925392,130.628326 22.6150429,130.777025 23.823459,131.272058 C23.823459,131.272058 26.7103849,130.207109 26.6631287,130.026754 Z" id="Path" fill="#6C63FF"></path>
            <path d="M111.042017,105.833602 C111.042017,105.833602 99.2322562,84.9253892 81.4510263,78.9006978 C73.9843836,76.4157638 67.5242156,71.5795283 63.0382813,65.1164788 C60.9299964,62.0303492 59.1094443,58.7573705 57.5995191,55.338701" id="Path" stroke="#535461" stroke-width="0.858829844"></path>
            <path d="M46.395497,51.4739667 C48.4189227,53.4406871 57.8572803,55.4718196 57.8572803,55.4718196 C57.8572803,55.4718196 55.5417251,46.1062802 53.5140033,44.1395598 C52.2099262,42.8333152 50.3025736,42.3313485 48.5240462,42.82633 C46.7455188,43.3213115 45.3721486,44.7363353 44.9310772,46.5282719 C44.4900058,48.3202084 45.0497631,50.2106422 46.395497,51.4739667 Z" id="Path" fill="#6C63FF"></path>
            <path d="M51.7311547,68.4358561 C54.5020881,68.9855072 63.5280277,65.5630703 63.5280277,65.5630703 C63.5280277,65.5630703 56.4911457,58.9586688 53.7202123,58.4090177 C51.9283095,58.0538615 50.0829669,58.681236 48.8793071,60.0548153 C47.6756474,61.4283945 47.2965352,63.3394992 47.8847783,65.0682346 C48.4730215,66.79697 49.9392519,68.0807001 51.7311547,68.4358561 Z" id="Path" fill="#6C63FF"></path>
            <path d="M71.1706486,86.7675792 C73.8384775,85.8443371 79.9044588,78.3381643 79.9044588,78.3381643 C79.9044588,78.3381643 70.4918773,76.1910896 67.8240485,77.1100376 C65.1560297,78.0337731 63.7423351,80.944523 64.6664732,83.6113795 C65.5906113,86.278236 68.5026299,87.6913147 71.1706486,86.7675792 Z" id="Path" fill="#6C63FF"></path>
            <path d="M89.0034308,97.3397746 C91.7915482,96.8803006 99.0389352,90.503489 99.0389352,90.503489 C99.0389352,90.503489 90.1289882,86.7933441 87.3408707,87.252818 C84.5542206,87.7117213 82.6673712,90.3417781 83.1264744,93.1272142 C83.5855777,95.9126503 86.2167807,97.7986778 89.0034308,97.3397746 Z" id="Path" fill="#6C63FF"></path>
            <path d="M71.3983377,58.2329576 C71.3983377,61.0585078 66.2903691,69.2431562 66.2903691,69.2431562 C66.2903691,69.2431562 61.1738083,61.0842727 61.1738083,58.2372517 C61.1738083,55.4150559 63.4626472,53.1272142 66.286073,53.1272142 C69.1094989,53.1272142 71.3983377,55.4150559 71.3983377,58.2372517 L71.3983377,58.2329576 Z" id="Path" fill="#6C63FF"></path>
            <path d="M92.1008617,70.8577563 C91.2416576,73.554482 83.9384223,79.8368223 83.9384223,79.8368223 C83.9384223,79.8368223 81.5068745,70.4970478 82.3488946,67.8132045 C83.1923634,65.1190747 86.0611056,63.6185197 88.7564096,64.461621 C91.4517135,65.3047224 92.9529226,68.1722148 92.1094538,70.8663446 L92.1008617,70.8577563 Z" id="Path" fill="#6C63FF"></path>
            <path d="M110.535087,85.8872786 C110.161333,88.6870639 104.000839,96.1202362 104.000839,96.1202362 C104.000839,96.1202362 100.022724,87.3258186 100.400774,84.5260333 C100.776835,81.7287393 103.350336,79.7658096 106.14885,80.1417071 C108.947363,80.5176046 110.911148,83.0899846 110.535087,85.8872786 Z" id="Path" fill="#6C63FF"></path>
            <path d="M46.395497,51.4739667 C48.4189227,53.4406871 57.8572803,55.4718196 57.8572803,55.4718196 C57.8572803,55.4718196 55.5417251,46.1062802 53.5140033,44.1395598 C52.2099262,42.8333152 50.3025736,42.3313485 48.5240462,42.82633 C46.7455188,43.3213115 45.3721486,44.7363353 44.9310772,46.5282719 C44.4900058,48.3202084 45.0497631,50.2106422 46.395497,51.4739667 Z" id="Path" fill="#000000" opacity="0.25"></path>
            <path d="M51.7311547,68.4358561 C54.5020881,68.9855072 63.5280277,65.5630703 63.5280277,65.5630703 C63.5280277,65.5630703 56.4911457,58.9586688 53.7202123,58.4090177 C51.9283095,58.0538615 50.0829669,58.681236 48.8793071,60.0548153 C47.6756474,61.4283945 47.2965352,63.3394992 47.8847783,65.0682346 C48.4730215,66.79697 49.9392519,68.0807001 51.7311547,68.4358561 Z" id="Path" fill="#000000" opacity="0.25"></path>
            <path d="M71.1706486,86.7675792 C73.8384775,85.8443371 79.9044588,78.3381643 79.9044588,78.3381643 C79.9044588,78.3381643 70.4918773,76.1910896 67.8240485,77.1100376 C65.1560297,78.0337731 63.7423351,80.944523 64.6664732,83.6113795 C65.5906113,86.278236 68.5026299,87.6913147 71.1706486,86.7675792 Z" id="Path" fill="#000000" opacity="0.25"></path>
            <path d="M89.0034308,97.3397746 C91.7915482,96.8803006 99.0389352,90.503489 99.0389352,90.503489 C99.0389352,90.503489 90.1289882,86.7933441 87.3408707,87.252818 C84.5542206,87.7117213 82.6673712,90.3417781 83.1264744,93.1272142 C83.5855777,95.9126503 86.2167807,97.7986778 89.0034308,97.3397746 Z" id="Path" fill="#000000" opacity="0.25"></path>
            <path d="M71.3983377,58.2329576 C71.3983377,61.0585078 66.2903691,69.2431562 66.2903691,69.2431562 C66.2903691,69.2431562 61.1738083,61.0842727 61.1738083,58.2372517 C61.1738083,55.4150559 63.4626472,53.1272142 66.286073,53.1272142 C69.1094989,53.1272142 71.3983377,55.4150559 71.3983377,58.2372517 L71.3983377,58.2329576 Z" id="Path" fill="#000000" opacity="0.25"></path>
            <path d="M92.1008617,70.8577563 C91.2416576,73.554482 83.9384223,79.8368223 83.9384223,79.8368223 C83.9384223,79.8368223 81.5068745,70.4970478 82.3488946,67.8132045 C83.1923634,65.1190747 86.0611056,63.6185197 88.7564096,64.461621 C91.4517135,65.3047224 92.9529226,68.1722148 92.1094538,70.8663446 L92.1008617,70.8577563 Z" id="Path" fill="#000000" opacity="0.25"></path>
            <path d="M110.535087,85.8872786 C110.161333,88.6870639 104.000839,96.1202362 104.000839,96.1202362 C104.000839,96.1202362 100.022724,87.3258186 100.400774,84.5260333 C100.776835,81.7287393 103.350336,79.7658096 106.14885,80.1417071 C108.947363,80.5176046 110.911148,83.0899846 110.535087,85.8872786 Z" id="Path" fill="#000000" opacity="0.25"></path>
            <path d="M110.363246,105.421363 C110.363246,105.421363 108.043395,81.5201288 94.227392,68.8094471 C88.400611,63.5140963 84.4483178,56.47328 82.9632256,48.7428878 C82.2820348,45.0675419 81.9397814,41.3374555 81.9407705,37.5995706" id="Path" stroke="#535461" stroke-width="0.858829844"></path>
            <path d="M73.2971789,29.5351583 C74.354,32.1545894 82.1555737,37.8357488 82.1555737,37.8357488 C82.1555737,37.8357488 83.8396138,28.3327966 82.7827927,25.7133655 C82.0997977,24.0196619 80.5647103,22.81883 78.7557832,22.5632116 C76.946856,22.3075932 75.1389082,23.0360228 74.0129761,24.4741081 C72.8870441,25.9121933 72.6141837,27.8414548 73.2971789,29.5351583 Z" id="Path" fill="#6C63FF"></path>
            <path d="M71.3081213,47.1969941 C73.6150844,48.8201825 83.255355,49.3440687 83.255355,49.3440687 C83.255355,49.3440687 79.5006329,40.4551798 77.1893737,38.8319914 C74.8796216,37.2086359 71.6906343,37.7642546 70.0665713,40.0730005 C68.4425083,42.3817464 68.9983692,45.5693444 71.3081213,47.1926999 L71.3081213,47.1969941 Z" id="Path" fill="#6C63FF"></path>
            <path d="M81.6400512,71.8411165 C84.4539448,72.0772947 93.0459863,67.6672034 93.0459863,67.6672034 C93.0459863,67.6672034 85.3131489,61.8915727 82.4992553,61.6553945 C79.6853201,61.4182353 77.2118356,63.5061312 76.9745729,66.3188406 C76.7373102,69.13155 78.826116,71.603957 81.6400512,71.8411165 Z" id="Path" fill="#6C63FF"></path>
            <path d="M93.6603172,88.7257112 C96.3968825,89.4342458 105.607551,86.5399893 105.607551,86.5399893 C105.607551,86.5399893 98.9616069,79.540526 96.2293377,78.8105207 C94.4288332,78.2426925 92.4618058,78.7130011 91.1132482,80.0337576 C89.7646907,81.3545141 89.2541628,83.3106851 89.7854039,85.1216102 C90.3166449,86.9325353 91.8031632,88.3033763 93.6517252,88.6870639 L93.6603172,88.7257112 Z" id="Path" fill="#6C63FF"></path>
            <path d="M93.4197401,45.8443371 C92.2769986,48.4208266 84.2864,53.8400429 84.2864,53.8400429 C84.2864,53.8400429 82.9245614,44.2898551 84.0673029,41.7090714 C85.2097227,39.1275923 88.2294513,37.9606007 90.8120555,39.1025228 C93.3946597,40.2444449 94.5621599,43.262858 93.4197401,45.8443371 Z" id="Path" fill="#6C63FF"></path>
            <path d="M107.227151,65.7734836 C105.362678,67.8904992 96.1176411,70.6688137 96.1176411,70.6688137 C96.1176411,70.6688137 97.6770966,61.1486849 99.5544577,59.0273752 C101.418156,56.9059851 104.649458,56.6964265 106.771773,58.5593129 C108.894087,60.4221993 109.103737,63.6520936 107.240039,65.7734836 L107.227151,65.7734836 Z" id="Path" fill="#6C63FF"></path>
            <path d="M117.984387,86.9779925 C116.506556,89.382716 107.867258,93.6854536 107.867258,93.6854536 C107.867258,93.6854536 107.794226,84.0365003 109.272057,81.6274826 C110.750203,79.2226871 113.898799,78.4709677 116.304643,79.9484702 C118.710486,81.4259727 119.462533,84.5731971 117.984387,86.9779925 Z" id="Path" fill="#6C63FF"></path>
            <path d="M63.3647789,71.5448202 C63.3647789,71.5448202 126.516284,74.1213097 135.108325,71.5448202 C135.108325,71.5448202 130.382703,177.180891 132.101111,180.61621 C132.101111,180.61621 62.0759727,184.480945 56.9207478,180.61621 C51.7655229,176.751476 63.3647789,71.5448202 63.3647789,71.5448202 Z" id="Path" stroke="#33313F" stroke-width="1.28824477" fill="#FFFFFF"></path>
            <path d="M72.8160246,91.2979066 C72.8160246,91.2979066 102.028966,137.674718 111.909813,141.968867" id="Path" stroke="#33313F" stroke-width="1.28824477" fill="#FFFFFF"></path>
            <path d="M111.909813,91.2979066 C111.909813,91.2979066 83.9856785,127.798175 79.6896578,140.251208" id="Path" stroke="#33313F" stroke-width="1.28824477" fill="#FFFFFF"></path>
            <path d="M109.332201,159.574879 L75.393637,159.574879 C72.8160246,159.574879 72.8160246,171.598497 72.8160246,171.598497 L109.332201,171.598497 L109.332201,159.574879 Z" id="Path" stroke="#33313F" stroke-width="1.28824477" fill="#FFFFFF"></path>
            <path d="M181.934952,71.5448202 C181.934952,71.5448202 242.508844,68.5389157 253.678498,71.5448202 C253.678498,71.5448202 248.952875,177.180891 250.671284,180.61621 C250.671284,180.61621 173.274174,186.666667 175.49092,180.61621 C180.216543,167.733763 181.934952,71.5448202 181.934952,71.5448202 Z" id="Path" stroke="#33313F" stroke-width="1.28824477" fill="#FFFFFF"></path>
            <path d="M205.541586,79.6006441 C205.541586,79.6006441 219.022499,101.006978 223.584873,102.986581" id="Path" stroke="#33313F" stroke-width="1.28824477" fill="#FFFFFF"></path>
            <path d="M223.584873,79.6006441 C223.584873,79.6006441 210.696811,96.4465915 208.712049,102.196457" id="Path" stroke="#33313F" stroke-width="1.28824477" fill="#FFFFFF"></path>
            <path d="M238.968923,116.633387 L193.431103,116.633387 C189.994287,116.633387 189.994287,128.657005 189.994287,128.657005 L238.968923,128.657005 L238.968923,116.633387 Z" id="Path" stroke="#33313F" stroke-width="1.28824477" fill="#FFFFFF"></path>
            <path d="M232.752581,154.851315 L198.814017,154.851315 C196.236405,154.851315 196.236405,166.874933 196.236405,166.874933 L232.752581,166.874933 L232.752581,154.851315 Z" id="Path" stroke="#33313F" stroke-width="1.28824477" fill="#FFFFFF"></path>
            <path d="M238.968923,134.239399 C242.42722,134.239399 197.460771,138.104133 193.431103,134.239399 C191.308869,132.208266 189.994287,146.263017 189.994287,146.263017 L238.968923,146.263017 L238.968923,134.239399 Z" id="Path" stroke="#33313F" stroke-width="1.28824477" fill="#FFFFFF"></path>
            <polyline id="Path" stroke="#33313F" stroke-width="1.28824477" fill="#FFFFFF" points="210.078184 160.648417 212.655796 163.224906 217.381419 156.783682"></polyline>
            <path d="M297.49791,72.40365 C297.49791,72.40365 357.6422,79.7037037 369.241456,72.40365 C369.241456,72.40365 364.515833,178.039721 366.234242,181.47504 C366.234242,181.47504 286.414176,185.94525 291.053879,181.47504 C302.653135,170.310252 297.49791,72.40365 297.49791,72.40365 Z" id="Path" stroke="#33313F" stroke-width="1.28824477" fill="#FFFFFF"></path>
            <path d="M305.85367,91.0831991 C305.85367,91.0831991 314.518744,104.824477 317.452926,106.112721" id="Path" stroke="#33313F" stroke-width="1.28824477" fill="#FFFFFF"></path>
            <path d="M317.452926,91.0831991 C317.452926,91.0831991 309.170198,101.93022 307.911464,105.606012" id="Path" stroke="#33313F" stroke-width="1.28824477" fill="#FFFFFF"></path>
            <path d="M355.339533,119.269995 L309.801713,119.269995 C306.364897,119.269995 306.364897,125.633924 306.364897,125.633924 L355.339533,125.633924 L355.339533,119.269995 Z" id="Path" stroke="#33313F" stroke-width="1.28824477" fill="#FFFFFF"></path>
            <path d="M355.339533,139.399618 L309.801713,139.399618 C306.364897,139.399618 306.364897,145.763547 306.364897,145.763547 L355.339533,145.763547 L355.339533,139.399618 Z" id="Path-Copy" stroke="#33313F" stroke-width="1.28824477" fill="#FFFFFF"></path>
            <path d="M355.391085,128.738594 C358.849382,128.738594 313.882933,130.782609 309.853265,128.738594 C307.731031,127.665056 306.416449,135.098229 306.416449,135.098229 L355.391085,135.098229 L355.391085,128.738594 Z" id="Path" stroke="#33313F" stroke-width="1.28824477" fill="#FFFFFF"></path>
            <path d="M297.858776,80.459474 C297.858776,80.459474 364.533018,85.3848631 368.820446,82.1127214" id="Path" stroke="#33313F" stroke-width="1.28824477" fill="#FFFFFF"></path>
            <path d="M360.430318,77.4149222 C361.341074,77.2216855 362.277607,77.496511 363.201251,77.6382179 C364.124896,77.7799249 365.173125,77.7627483 365.843304,77.1186259" id="Path" stroke="#33313F" stroke-width="0.858829844" fill="#FFFFFF"></path>
            <path d="M359.970644,79.106817 C361.895593,79.4455435 363.85408,79.5536602 365.80464,79.4288782" id="Path" stroke="#33313F" stroke-width="0.858829844" fill="#FFFFFF"></path>
            <path d="M359.962051,81.5072464 C361.612717,81.2270685 363.277951,81.0406895 364.949732,80.949007" id="Path" stroke="#33313F" stroke-width="0.858829844" fill="#FFFFFF"></path>
            <path d="M301.609202,78.3123994 C302.41576,78.6852265 303.298736,78.8632158 304.186814,78.8319914 C304.746645,78.9086025 305.315572,78.7854391 305.793526,78.4841653 C306.356305,78.0289855 306.403561,77.1959206 306.403561,76.4702093 C306.419869,76.2497628 306.387607,76.0284238 306.309048,75.8217928 C306.200584,75.6240208 306.042076,75.4581778 305.849374,75.3408481 C304.788257,74.6022544 302.816383,74.301664 301.574833,74.8040794 C299.873609,75.4911433 300.148555,77.5179817 301.609202,78.3123994 Z" id="Path" stroke="#33313F" stroke-width="0.858829844" fill="#FFFFFF"></path>
            <path d="M320.619093,88.3950617 C320.369924,91.5727322 321.13032,94.7289318 321.641546,97.8765432 C322.286563,101.850073 322.54267,105.876975 322.406238,109.900161 C315.627117,110.312399 308.839405,110.411165 302.0431,110.196457 C302.674615,110.217928 302.515662,95.8368223 302.575806,94.5142244 C302.653135,92.8223296 302.292269,89.9108964 304.25555,89.2753623 C306.31764,88.6011809 309.22175,89.0177134 311.386945,88.9146538 C314.462896,88.7715155 317.540279,88.5983181 320.619093,88.3950617 Z" id="Path" stroke="#33313F" stroke-width="1.28824477" fill="#FFFFFF"></path>
            <path d="M144.989173,120.927536 C144.989173,120.927536 161.743654,120.068706 164.750869,120.927536" id="Path" stroke="#33313F" stroke-width="1.28824477"></path>
            <path d="M164.750869,111.909823 C164.750869,111.909823 172.054104,119.209877 172.054104,120.927536 C172.054104,122.645196 162.602858,128.657005 162.602858,128.657005" id="Path" stroke="#33313F" stroke-width="1.28824477"></path>
            <path d="M260.981733,120.927536 C260.981733,120.927536 277.736214,120.068706 280.743429,120.927536" id="Path" stroke="#33313F" stroke-width="1.28824477"></path>
            <path d="M280.743429,111.909823 C280.743429,111.909823 288.046664,119.209877 288.046664,120.927536 C288.046664,122.645196 278.595418,128.657005 278.595418,128.657005" id="Path" stroke="#33313F" stroke-width="1.28824477"></path>
            <ellipse id="Oval" fill="#6C63FF" opacity="0.1" cx="162.156072" cy="9.61030596" rx="9.29229288" ry="9.28824477"></ellipse>
            <ellipse id="Oval" fill="#6C63FF" opacity="0.1" cx="303.542411" cy="22.4326355" rx="9.29229288" ry="9.28824477"></ellipse>
            <ellipse id="Oval" fill="#6C63FF" opacity="0.1" cx="402.844931" cy="160.034353" rx="9.29229288" ry="9.28824477"></ellipse>
            <ellipse id="Oval" fill="#6C63FF" opacity="0.1" cx="436.083243" cy="118.625872" rx="15.5730752" ry="15.5662909"></ellipse>
            <ellipse id="Oval" fill="#6C63FF" opacity="0.1" cx="415.46664" cy="194.168545" rx="15.5730752" ry="15.5662909"></ellipse>
            <ellipse id="Oval" fill="#6C63FF" opacity="0.1" cx="15.6316924" cy="145.494364" rx="15.5730752" ry="15.5662909"></ellipse>
            <path d="M393.956464,247.467525 C393.956464,247.467525 396.504004,250.799785 392.78365,255.828234 C389.063296,260.856683 385.987345,265.10789 387.228895,268.234031 C387.228895,268.234031 392.84809,258.894257 397.419056,258.786903 C401.990022,258.679549 398.987104,253.084273 393.956464,247.467525 Z" id="Path" fill="#6C63FF"></path>
            <path d="M393.956464,247.467525 C394.179652,247.789738 394.354759,248.142691 394.476282,248.515298 C398.939848,253.75416 401.315547,258.640902 397.028118,258.765432 C393.032819,258.881374 388.242756,266.01825 387.091422,267.821793 C387.130087,267.9635 387.177343,268.096618 387.228895,268.251208 C387.228895,268.251208 392.84809,258.911433 397.419056,258.804079 C401.990022,258.696726 398.987104,253.084273 393.956464,247.467525 Z" id="Path" fill="#000000" opacity="0.1"></path>
            <path d="M398.694975,251.714439 C398.694975,252.886742 398.561798,253.835749 398.398549,253.835749 C398.2353,253.835749 398.10642,252.886742 398.10642,251.714439 C398.10642,250.542136 398.269668,251.091787 398.432917,251.091787 C398.596166,251.091787 398.694975,250.542136 398.694975,251.714439 Z" id="Path" fill="#FFD037"></path>
            <path d="M400.31887,253.114332 C399.287825,253.672571 398.389957,254.011809 398.312629,253.870102 C398.2353,253.728395 399.008584,253.157273 400.031037,252.581857 C401.05349,252.006441 400.658256,252.431562 400.735584,252.581857 C400.812913,252.732152 401.349915,252.551798 400.31887,253.114332 Z" id="Path" fill="#FFD037"></path>
            <path d="M380.514215,247.467525 C380.514215,247.467525 377.966674,250.799785 381.691324,255.828234 C385.415974,260.856683 388.483333,265.099302 387.241783,268.234031 C387.241783,268.234031 381.622588,258.894257 377.051622,258.786903 C372.480656,258.679549 375.470686,253.084273 380.514215,247.467525 Z" id="Path" fill="#6C63FF"></path>
            <path d="M380.514215,247.467525 C380.291026,247.789738 380.11592,248.142691 379.994396,248.515298 C375.530831,253.75416 373.155131,258.640902 377.44256,258.765432 C381.437859,258.881374 386.232218,266.01825 387.379256,267.821793 C387.340592,267.9635 387.293335,268.096618 387.241783,268.251208 C387.241783,268.251208 381.622588,258.911433 377.051622,258.804079 C372.480656,258.696726 375.470686,253.084273 380.514215,247.467525 Z" id="Path" fill="#000000" opacity="0.1"></path>
            <path d="M375.788592,251.714439 C375.788592,252.886742 375.917473,253.835749 376.080721,253.835749 C376.24397,253.835749 376.372851,252.886742 376.372851,251.714439 C376.372851,250.542136 376.209602,251.091787 376.046353,251.091787 C375.883104,251.091787 375.788592,250.542136 375.788592,251.714439 Z" id="Path" fill="#FFD037"></path>
            <path d="M374.13892,253.114332 C375.169965,253.672571 376.067833,254.011809 376.145162,253.870102 C376.22249,253.728395 375.449206,253.157273 374.426753,252.581857 C373.4043,252.006441 373.80383,252.431562 373.722206,252.581857 C373.640582,252.732152 373.112171,252.551798 374.13892,253.114332 Z" id="Path" fill="#FFD037"></path>
            <path d="M400.937497,263.746645 L400.812913,264.785829 L400.63248,266.254428 L400.559448,266.864198 L400.379015,268.337091 L400.301686,268.94686 L400.125549,270.415459 L398.08494,287.119699 C397.904507,288.609769 395.464367,289.773484 392.525889,289.773484 L381.931902,289.773484 C378.993423,289.773484 376.55758,288.609769 376.377147,287.119699 L374.336537,270.415459 L374.156104,268.94686 L374.083072,268.337091 L373.898343,266.864198 L373.82531,266.254428 L373.649174,264.785829 L373.520293,263.746645 C373.417188,262.887815 374.736067,262.187869 376.398627,262.187869 L398.059163,262.187869 C399.721724,262.187869 401.044898,262.900698 400.937497,263.746645 Z" id="Path" fill="#444053"></path>
            <polygon id="Path" fill="#9D9CB5" points="400.812913 264.785829 400.63248 266.250134 373.82531 266.250134 373.649174 264.785829"></polygon>
            <polygon id="Path" fill="#9D9CB5" points="400.559448 266.864198 400.379015 268.332797 374.083072 268.332797 373.902639 266.864198"></polygon>
            <polygon id="Path" fill="#9D9CB5" points="400.301686 268.94686 400.125549 270.415459 374.336537 270.415459 374.156104 268.94686"></polygon>
            <path d="M383.75771,292.311326 C383.237892,290.108427 382.898506,288.171766 382.898506,288.171766 C382.898506,288.171766 383.018795,285.771337 381.940494,283.967794 L381.940494,283.366613 L381.940494,278.930757 C382.246267,278.125396 382.62143,277.348098 383.061755,276.607622 C383.860815,275.212024 383.061755,270.101986 383.061755,270.101986 C383.061755,270.101986 380.097501,262.896404 380.819232,258.327429 C381.540964,253.758454 374.731771,238.028986 374.731771,238.028986 C374.773685,236.51231 374.988441,235.005354 375.371878,233.537305 C375.443208,233.229203 375.472115,232.912807 375.457798,232.596887 C375.460021,232.558271 375.460021,232.51956 375.457798,232.480945 C375.457798,232.480945 375.457798,232.50671 375.457798,232.519592 C375.354694,229.513688 372.970402,223.853999 372.970402,223.853999 L373.292604,213.088567 C373.292604,213.088567 374.813395,206.73752 372.330295,198.213634 C371.471091,195.242083 370.908312,192.85883 370.556039,191.025228 C370.517374,190.814815 370.47871,190.595813 370.444342,190.424047 C375.556607,189.646806 379.465986,188.99839 379.465986,188.99839 C379.465986,188.99839 376.510323,176.601181 374.508378,174.454106 C372.506432,172.307032 370.908312,165.436393 370.908312,165.436393 C370.908312,165.436393 369.864379,156.680623 371.548419,154.125604 C373.23246,151.570585 373.468741,147.1562 373.468741,147.1562 C373.468741,147.1562 377.335159,144.365003 377.794834,143.128288 C378.254508,141.891573 379.08364,139.100376 379.08364,137.627483 C379.08364,136.154589 378.602485,134.836286 378.761438,134.063339 C378.920391,133.290392 377.640177,130.344605 378.280284,128.949007 C378.447795,128.520534 378.535164,128.064956 378.538045,127.604938 C378.538045,127.604938 378.538045,127.579173 378.538045,127.566291 C378.541841,126.347259 378.428187,125.130694 378.19866,123.933441 C377.088676,122.996174 375.793033,122.304003 374.396681,121.902308 L374.310761,121.567364 L374.09596,120.708535 C373.967079,120.622652 373.842495,120.549651 373.71791,120.480945 L373.71791,120.163178 L373.679246,118.904992 L374.284985,116.079442 C375.46639,111.158347 368.897775,110.424047 368.897775,110.424047 C368.501128,109.669709 367.838143,109.089658 367.037598,108.796565 C365.714423,108.332797 366.818501,116.195384 367.437128,116.697799 C367.901098,117.075684 369.335969,119.540526 370.01474,120.751476 L370.126437,120.953301 C370.016958,121.048529 369.916309,121.153446 369.825715,121.266774 L370.074884,122.984434 L370.113548,123.246377 C369.679307,123.787861 369.326199,124.38962 369.065319,125.032743 C369.065319,125.032743 370.268205,126.351047 370.027628,127.82394 C369.787051,129.296833 370.39279,131.130435 370.422862,131.2292 C370.354126,131.147611 369.50781,130.232958 368.66579,130.456253 C367.823769,130.679549 365.460958,131.388084 365.460958,131.388084 C365.460958,131.388084 363.69959,131.697262 363.862838,132.083736 C364.026087,132.470209 362.659952,134.174987 362.659952,134.174987 L357.93433,129.691895 C357.891369,129.558776 357.839817,129.425658 357.796857,129.283951 C357.595378,128.643928 357.451604,127.987166 357.367255,127.321524 C357.882033,127.197041 358.38736,127.036325 358.879454,126.84058 C359.369457,126.667664 359.811237,126.380631 360.16826,126.003221 C360.645119,125.436393 360.735335,124.66774 360.928656,123.9635 C361.306706,122.585078 362.110062,121.356951 362.685729,120.047236 C363.661683,117.841169 363.989488,115.403061 363.630853,113.017713 C363.555719,112.284173 363.306839,111.579077 362.904826,110.960816 C362.131542,109.895867 360.731039,109.466452 359.708586,108.61621 C358.686133,107.765969 358.033138,106.469136 356.847436,105.837896 C355.773431,105.26248 354.463145,105.331186 353.251667,105.528717 C350.884476,105.919597 348.610533,106.746655 346.545579,107.967794 C345.853919,108.375738 345.09782,108.848094 344.303056,108.706388 C343.624285,108.581857 343.125946,108.0365 342.683456,107.516908 C342.683456,107.495437 342.683456,107.473967 342.704936,107.452496 L342.653384,107.392378 C342.168155,108.497207 341.929212,109.694332 341.953132,110.900698 C341.953132,111.08964 341.953132,111.278583 341.974613,111.467525 L341.974613,111.665056 C341.974613,111.72088 341.974613,111.776704 341.974613,111.828234 C341.975867,111.913927 341.964283,111.999324 341.940244,112.081589 C341.843654,112.322691 341.697266,112.540714 341.510642,112.721417 C341.365133,112.883151 341.235647,113.0586 341.124,113.245303 C341.141637,113.179674 341.163155,113.115148 341.188441,113.052067 C340.886374,113.493515 340.716485,114.011898 340.698694,114.54643 C340.671477,114.933902 340.798036,115.316498 341.050968,115.611379 C341.288085,115.843318 341.547047,116.051835 341.824252,116.234031 C341.149662,119.951023 342.864385,123.694346 346.120273,125.612453 C346.176121,125.745572 346.231969,125.882984 346.283521,126.020397 C346.88926,127.613527 347.344639,129.455717 347.142726,131.173376 C347.142726,131.302201 347.108357,131.426731 347.082581,131.551261 C347.056805,131.675792 346.966589,131.680086 346.915036,131.748792 C346.915036,131.748792 339.100575,131.826087 337.257582,130.159957 C335.414589,128.493827 332.613583,134.226516 332.613583,134.226516 C332.613583,134.226516 329.812578,134.767579 329.254095,134.226516 C328.695612,133.685454 325.409157,134.149222 325.409157,134.149222 C324.071528,132.962967 322.333731,132.327689 320.546061,132.371444 C319.45257,131.540457 318.246138,130.869545 316.96318,130.378959 L316.877259,130.3489 C316.314047,130.144498 315.71232,130.068215 315.115891,130.125604 C315.115891,130.125604 311.270952,126.947933 310.149691,125.24745 C309.028429,123.546967 303.70566,117.221685 303.666996,117.191626 L303.666996,116.886742 L303.606851,115.9635 C303.449267,115.990263 303.289825,116.004621 303.129993,116.006441 C303.099921,115.916264 303.065553,115.80891 303.022592,115.688674 C302.714492,114.791059 302.335239,113.919445 301.888443,113.082126 C301.888443,113.082126 301.888443,111.922705 302.227829,111.630703 C302.567214,111.338701 302.08606,107.078905 302.08606,107.078905 C302.08606,107.078905 298.623467,98.9844337 295.52174,105.026302 C295.52174,105.026302 289.657672,108.938272 294.580912,113.49007 C294.580912,113.49007 296.544193,114.439077 296.819138,115.207729 C297.003867,115.697262 297.678343,117.062802 298.107945,117.968867 L298.309858,118.376812 L298.254009,118.424047 L298.327042,119.184112 L298.357114,119.476114 C297.429173,120.004294 296.801954,120.523886 296.952315,120.918948 C297.225972,121.589997 297.415017,122.292478 297.515094,123.010199 C297.515094,123.010199 304.294215,131.512614 305.174899,135.162641 C305.174899,135.162641 323.428691,146.005368 329.434528,146.778315 L328.394891,152.201825 C328.239674,153.668242 328.159377,155.141617 328.154314,156.61621 C328.231642,157.779925 327.432582,163.057434 327.432582,163.057434 C327.432582,163.057434 326.392945,170.786903 325.512261,171.886205 C324.631577,172.985507 324.81201,177.610306 324.81201,177.610306 C324.599807,179.834919 324.197374,182.037278 323.609124,184.193237 C322.74992,187.139023 323.368547,190.780462 323.368547,190.780462 C323.368547,190.780462 320.326964,197.749866 327.613015,193.026302 C327.613015,193.026302 331.191601,192.803006 335.311484,192.661299 C335.311484,192.798712 335.311484,192.93183 335.311484,193.090714 C335.311484,193.618894 335.311484,194.19431 335.285708,194.808374 C335.22986,198.801932 335.20838,204.302738 335.388813,208.468062 C335.711014,215.82394 337.966425,230.389694 337.966425,230.389694 L337.966425,237.689748 C337.823313,238.377559 337.752759,239.078476 337.75592,239.780998 C337.706606,242.360232 338.39037,244.900524 339.727794,247.106817 L340.290572,251.98497 C340.290572,251.98497 341.605155,255.201288 341.630931,257.13795 C341.624726,257.295201 341.606051,257.451713 341.575083,257.606012 C341.525543,257.851855 341.503926,258.102503 341.510642,258.353194 C341.43761,260.568975 342.773672,265.867955 342.773672,265.867955 C342.773672,265.867955 342.851001,271.214171 343.632877,271.523349 C344.315944,271.789587 342.717824,274.606549 342.240966,275.413849 C342.240966,275.362319 342.240966,275.310789 342.210894,275.259259 L342.112085,275.422437 C341.946708,275.85273 341.862236,276.309847 341.862916,276.7708 C341.770892,277.516828 342.117112,278.24909 342.752192,278.651637 C344.272984,279.579173 345.089228,280.369297 343.796125,280.665593 C343.321611,280.739901 342.851279,280.838799 342.387031,280.961889 L342.318294,280.781535 C341.94613,280.932731 341.728459,281.321516 341.79418,281.71766 C341.803406,282.351468 341.967085,282.973472 342.271038,283.529791 C343.559844,286.398282 344.419048,287.480408 344.419048,287.480408 L345.037675,287.411702 C344.944304,287.644943 344.824678,287.866804 344.681106,288.073001 C344.447803,288.409506 344.136893,288.684932 343.774645,288.876006 C343.440366,289.077309 343.066823,289.204698 342.67916,289.249597 C341.800652,289.279084 340.976049,289.680279 340.410861,290.353194 C339.611801,291.388084 339.122055,292.792271 340.690102,294.028986 L346.416698,296.004294 C346.416698,296.004294 356.263178,297.292539 355.743359,295.072464 C355.223541,292.852389 354.884155,290.92861 354.884155,290.92861 C354.924528,289.578974 354.650999,288.238387 354.085095,287.012346 C353.981518,286.813308 353.865287,286.621109 353.737117,286.43693 L354.085095,286.398282 C354.085095,286.398282 354.806827,281.515835 355.764839,280.588298 C355.988232,280.373591 356.039785,280.210413 355.983936,280.081589 C356.082745,279.815352 355.833576,279.652174 355.511374,279.570585 L355.442638,279.763822 C355.12784,279.695219 354.806805,279.659244 354.484625,279.656468 C354.484625,279.656468 354.166719,277.101449 355.206356,276.173913 C355.376018,275.95942 355.449126,275.684218 355.408269,275.413849 C355.415527,275.062932 355.379455,274.71246 355.300869,274.37037 L355.262205,274.430488 C354.73809,272.111648 352.963834,268.41868 352.963834,268.41868 C352.963834,268.41868 352.882209,266.095545 353.526612,265.163714 C354.171015,264.231884 353.444988,252.538916 353.444988,252.538916 C353.444988,252.538916 353.685565,246.883521 352.963834,244.251208 C352.242102,241.618894 353.844518,238.518519 353.844518,238.518519 C353.844518,238.518519 353.844518,238.454106 353.844518,238.346753 L353.865998,238.308105 C353.865998,238.308105 353.827334,237.960279 353.771486,237.419216 C353.771486,237.419216 353.771486,237.45357 353.771486,237.470746 C353.608237,235.976382 353.303219,233.26248 353.079826,232.008588 C352.757625,230.226516 353.157155,221.70263 353.157155,221.70263 L354.600618,218.061192 L357.17823,224.339238 L359.901907,232.70424 C359.901907,232.70424 361.250858,234.469136 361.28093,236.259796 C361.287469,236.346988 361.287469,236.434547 361.28093,236.521739 C361.260433,236.708544 361.250394,236.896348 361.250858,237.084273 C361.202962,238.139188 361.493459,239.181813 362.07999,240.060118 C362.07999,240.060118 362.801721,244.010735 363.922983,245.01986 C365.044244,246.028986 365.044244,247.961353 365.044244,247.961353 C365.044244,247.961353 366.401787,253.694042 367.04619,254.703167 C367.583192,255.561997 367.613264,257.885132 367.608968,258.59796 C367.608968,258.731079 367.608968,258.808374 367.608968,258.808374 C367.608968,258.808374 367.797993,260.856683 367.789401,262.578637 C367.789401,262.78905 367.789401,263.008052 367.789401,263.1927 C367.787378,263.17702 367.787378,263.161145 367.789401,263.145464 C367.785885,263.615459 367.729686,264.08358 367.621856,264.541063 C367.621856,264.541063 367.621856,264.592593 367.59608,264.622652 L367.621856,264.330649 C367.333405,265.499588 367.189132,266.699414 367.192254,267.903382 C367.15359,269.964573 367.4672,272.40365 368.717342,273.833602 C370.865352,276.31562 372.240079,276.006441 372.240079,276.006441 C372.240079,276.006441 371.200442,279.102523 369.915932,279.72088 C369.868335,279.745916 369.823668,279.77616 369.782755,279.811057 C369.782755,279.750939 369.756979,279.690821 369.748387,279.630703 C369.466843,279.946081 369.331173,280.365384 369.374633,280.785829 C369.28012,282.147075 370.139325,284.358561 370.959865,285.376275 C371.261262,285.675149 371.633833,285.892387 372.042462,286.007515 L371.840549,286.132045 C371.701268,286.209912 371.557856,286.280154 371.410947,286.342458 C371.20387,286.433489 370.983294,286.490059 370.757952,286.50993 C369.8785,286.535599 369.052416,286.937513 368.489653,287.613527 C367.690593,288.644122 367.200846,290.048309 368.768894,291.285024 L374.49549,293.260333 C374.49549,293.260333 384.277529,294.522813 383.75771,292.311326 Z" id="Path" fill="url(#linearGradient-1)"></path>
            <path d="M346.141753,295.978529 L340.599886,294.003221 C339.070503,292.766506 339.560249,291.362319 340.329237,290.327429 C340.86681,289.659441 341.667482,289.256931 342.524503,289.223833 C342.901414,289.178917 343.263749,289.051349 343.58562,288.850242 C343.93213,288.655085 344.226769,288.379717 344.444825,288.047236 C344.852933,287.405053 345.071797,286.660941 345.07634,285.900161 C345.07634,285.900161 351.163801,284.118089 352.809177,285.900161 C353.105777,286.222272 353.354617,286.585246 353.548092,286.977992 C354.095304,288.20928 354.359538,289.547485 354.321376,290.894257 C354.321376,290.894257 354.634986,292.830918 355.133324,295.038111 C355.631663,297.245303 346.141753,295.978529 346.141753,295.978529 Z" id="Path" fill="#2D293D"></path>
            <path d="M373.266828,293.243156 L367.724961,291.267848 C366.195578,290.031133 366.681028,288.626946 367.454312,287.59635 C367.989302,286.925175 368.791537,286.521878 369.649578,286.492754 C369.868021,286.472902 370.081534,286.41628 370.281093,286.325282 C370.429262,286.265768 370.57285,286.19544 370.710695,286.114868 C372.257263,285.256039 372.218599,283.173376 372.218599,283.173376 C372.218599,283.173376 378.301764,281.391304 379.951436,283.173376 C380.17528,283.412946 380.369956,283.678167 380.531399,283.9635 C381.579628,285.767042 381.463635,288.171766 381.463635,288.171766 C381.463635,288.171766 381.772949,290.108427 382.275583,292.31562 C382.778218,294.522813 373.266828,293.243156 373.266828,293.243156 Z" id="Path" fill="#2D293D"></path>
            <path d="M352.843545,285.904455 C353.140145,286.226566 353.388985,286.58954 353.582461,286.982287 L344.462009,288.038647 C344.870117,287.396464 345.088981,286.652352 345.093524,285.891573 C345.093524,285.891573 351.180985,284.122383 352.843545,285.904455 Z" id="Path" fill="#000000" opacity="0.1"></path>
            <path d="M380.548583,283.954911 L380.548583,285.672571 C379.135192,288.008588 372.274447,287.497585 370.281093,286.325282 C370.429262,286.265768 370.57285,286.19544 370.710695,286.114868 C372.257263,285.256039 372.218599,283.173376 372.218599,283.173376 C372.218599,283.173376 378.301764,281.391304 379.951436,283.173376 C380.180752,283.409326 380.381207,283.671677 380.548583,283.954911 Z" id="Path" fill="#000000" opacity="0.1"></path>
            <path d="M381.635476,276.607622 C381.210774,277.351269 380.847278,278.128208 380.548583,278.930757 L380.548583,285.049919 C379.002015,287.626409 370.94268,286.767579 369.855787,285.359098 C368.768894,283.950617 367.608968,280.326355 368.850518,279.707998 C370.092068,279.08964 371.097337,275.989265 371.097337,275.989265 C371.097337,275.989265 369.778459,276.298443 367.686297,273.820719 C365.594135,271.342995 366.212762,265.84219 366.6037,264.523886 C366.994637,263.205582 366.6037,258.791197 366.6037,258.791197 C366.6037,258.791197 366.681028,255.695115 366.058105,254.68599 C365.435182,253.676865 364.1206,247.94847 364.1206,247.94847 C364.1206,247.94847 364.1206,246.011809 363.038002,245.002684 C361.955405,243.993559 361.255154,240.047236 361.255154,240.047236 C360.616887,239.061773 360.339138,237.886027 360.468982,236.71927 C360.705263,234.782609 359.1544,232.691358 359.1544,232.691358 L356.520939,224.326355 L354.037839,218.052603 L352.65452,221.689748 C352.65452,221.689748 352.263582,230.20934 352.577192,231.995706 C352.890801,233.782072 353.350476,238.501342 353.350476,238.501342 C353.350476,238.501342 351.799612,241.601718 352.491271,244.234031 C353.182931,246.866345 352.955242,252.521739 352.955242,252.521739 C352.955242,252.521739 353.651197,264.219002 353.03257,265.146538 C352.413943,266.074074 352.491271,268.401503 352.491271,268.401503 C352.491271,268.401503 355.666031,275.216318 354.639282,276.130972 C353.612533,277.045625 353.93903,279.617821 353.93903,279.617821 C353.93903,279.617821 356.087041,279.617821 355.18058,280.545357 C354.27412,281.472893 353.595349,286.368223 353.595349,286.368223 L344.225727,287.450349 C344.225727,287.450349 343.366523,286.368223 342.124973,283.499732 C340.883423,280.63124 342.356958,280.923242 343.6071,280.635534 C344.857243,280.347826 344.062479,279.549114 342.59324,278.621578 C341.124,277.694042 341.970317,275.615674 341.970317,275.615674 C341.970317,275.615674 344.217135,271.819646 343.443852,271.506173 C342.670568,271.1927 342.584648,265.855072 342.584648,265.855072 C342.584648,265.855072 341.033784,259.499732 341.420426,257.799249 C341.807068,256.098765 340.178876,251.989265 340.178876,251.989265 L339.637577,247.106817 C337.975883,244.341145 337.365883,241.069923 337.919169,237.891573 L337.919169,230.363929 C337.919169,230.363929 335.771159,215.802469 335.440365,208.442297 C335.242748,203.718733 335.298596,197.29898 335.363037,193.283951 C335.401701,191.033816 335.440365,189.543747 335.440365,189.543747 L368.927847,186.048309 C368.979009,187.719324 369.181753,189.382251 369.533586,191.01664 C369.872971,192.854536 370.39279,195.233494 371.251994,198.20934 C373.65347,206.728932 372.179934,213.079979 372.179934,213.079979 L371.870621,223.849705 C371.870621,223.849705 374.817691,231.050993 374.194768,233.533011 C373.82394,235.002943 373.616476,236.509281 373.576141,238.024691 C373.576141,238.024691 380.161941,253.749866 379.465986,258.318841 C378.77003,262.887815 381.613996,270.093398 381.613996,270.093398 C381.613996,270.093398 382.40876,275.212024 381.635476,276.607622 Z" id="Path" fill="#575988"></path>
            <path d="M362.492408,236.251208 L372.686865,234.894257 C372.686865,234.894257 366.913013,240.781535 362.492408,236.251208 Z" id="Path" fill="#000000" opacity="0.05"></path>
            <path d="M371.209034,224.940419 C371.209034,224.940419 371.557011,228.54321 369.348857,229.900161 C369.353153,229.900161 373.305492,229.277509 371.209034,224.940419 Z" id="Path" fill="#000000" opacity="0.1"></path>
            <path d="M370.586111,213.479334 C370.586111,213.479334 362.067102,220.487386 358.986855,219.920558 C355.906608,219.353731 370.586111,213.479334 370.586111,213.479334 Z" id="Path" fill="#000000" opacity="0.1"></path>
            <path d="M349.862107,239.54482 C349.862107,239.54482 343.392299,241.013419 343.198978,243.611379 C343.005658,246.20934 349.862107,239.54482 349.862107,239.54482 Z" id="Path" fill="#000000" opacity="0.1"></path>
            <path d="M351.28409,271.845411 C351.28409,271.845411 342.142157,273.56307 344.736954,274.709608 C347.33175,275.856146 351.610587,276.800859 351.610587,276.800859 C351.610587,276.800859 354.540473,276.955448 351.28409,271.845411 Z" id="Path" fill="#000000" opacity="0.05"></path>
            <g id="Group" opacity="0.05" transform="translate(335.148236, 189.264627)" fill="#000000">
                <path d="M7.74142939,87.2914654 C7.27770906,86.9973682 6.97148957,86.5098394 6.90800137,85.9645733 L6.81348891,86.1277509 C6.81348891,86.1277509 5.95428476,88.2190016 7.4321159,89.1336554 C7.60395673,89.2410091 7.76290949,89.3483629 7.9089742,89.4514224 C8.18391953,89.3998926 8.47604894,89.3612453 8.76817835,89.2925389 C10.0054323,88.9919485 9.21496451,88.2190016 7.74142939,87.2914654 Z" id="Path"></path>
                <path d="M19.5211183,86.6688137 C19.7745835,86.4369297 19.7659915,85.8400429 19.6113347,85.0756844 C19.2377498,85.7634155 19.0580799,86.5396669 19.0915162,87.3215244 C19.1874309,87.0762951 19.3337889,86.853928 19.5211183,86.6688137 Z" id="Path"></path>
                <path d="M18.1163195,48.1331186 C17.7777151,49.0484768 17.5694702,50.0068533 17.4976925,50.9801396 C17.672715,50.3068697 17.9100186,49.6513346 18.2065359,49.0220075 C18.2065359,49.0220075 18.1721678,48.6741814 18.1163195,48.1331186 Z" id="Path"></path>
                <path d="M39.0680127,44.0665593 C39.1313534,43.7848189 39.1602051,43.4964282 39.1539331,43.2077295 C39.0379406,43.7831455 38.9563162,44.3199141 38.9004679,44.7922705 C38.93054,44.5646806 38.9863883,44.3199141 39.0680127,44.0665593 Z" id="Path"></path>
                <path d="M17.8929264,75.6714976 C18.0709577,75.1170924 18.1494955,74.5355843 18.1249115,73.9538379 C17.8442587,74.644065 17.6984321,75.3816263 17.6953095,76.1266774 C17.7429148,75.9676633 17.8092521,75.8148659 17.8929264,75.6714976 Z" id="Path"></path>
                <path d="M19.8132477,90.2758991 C19.3316082,91.8308989 18.9753316,93.4219575 18.7478346,95.0338164 L9.3782133,96.1202362 C9.3782133,96.1202362 8.51900915,95.0338164 7.27745915,92.1696189 C7.17005863,91.9162641 7.08413822,91.6929683 7.01540188,91.4868492 C6.45262317,91.7444981 6.23352611,92.345679 6.96814566,94.0289855 C8.20969565,96.893183 9.06460378,97.9796028 9.06460378,97.9796028 L18.4471131,96.893183 C18.4471131,96.893183 19.1430685,92.0150295 20.0710089,91.0831991 C20.5220911,90.6280193 20.2299617,90.3961353 19.8132477,90.2758991 Z" id="Path"></path>
                <path d="M7.4321159,76.3671498 C7.4321159,76.3671498 7.50944427,81.7133655 8.29132005,82.0225443 C8.68225793,81.1379495 8.9443152,80.3048846 8.59633752,80.1588835 C7.81875776,79.8497048 7.73713337,74.503489 7.73713337,74.503489 C7.73713337,74.503489 6.1905659,68.1524423 6.57720777,66.4476651 C6.96384963,64.7428878 5.33565777,60.6376812 5.33565777,60.6376812 L4.79435916,55.7595276 C3.13016946,52.9932209 2.5200323,49.7197364 3.07595086,46.5399893 L3.07595086,39.0252281 C3.07595086,39.0252281 0.927940482,24.4637681 0.597146884,17.1250671 C0.39952993,12.401503 0.455378199,5.96027912 0.519818511,1.96672034 C0.519818511,1.24100913 0.541298614,0.596886742 0.554186677,0.0558239399 L0.28783339,0.0815888352 C0.28783339,0.0815888352 0.244873183,1.57165862 0.210505017,3.82608696 C0.141768685,7.83682233 0.085920415,14.2694579 0.28783339,18.9801396 C0.597146884,26.3403113 2.76663736,40.9017713 2.76663736,40.9017713 L2.76663736,48.4165325 C2.2107188,51.5962796 2.82085596,54.8697641 4.48504566,57.6360709 L5.0306403,62.4841653 C5.0306403,62.4841653 6.65883216,66.589372 6.27219029,68.2941492 C5.88554843,69.9989265 7.4321159,76.3671498 7.4321159,76.3671498 Z" id="Path"></path>
                <path d="M35.0211611,94.0289855 C34.2599542,92.9274676 33.753662,91.6703564 33.539034,90.3488996 C32.5810214,91.2077295 33.6808027,94.56146 34.7118477,95.8883521 C35.7944449,97.2796565 43.8537798,98.1341922 45.4046433,95.5791734 L45.4046433,94.101986 C43.3081852,96.1803543 36.0607982,95.3472893 35.0211611,94.0289855 Z" id="Path"></path>
                <path d="M46.80085,85.2775094 C46.3729951,86.0195193 46.0093739,86.7967263 45.7139568,87.6006441 L45.7139568,88.6784756 C45.8900936,88.2791197 46.1435589,87.7509393 46.4915366,87.1239936 C46.7389523,86.5167885 46.8546291,85.8640112 46.8309222,85.208803 C46.8176532,85.2301449 46.8075254,85.2532841 46.80085,85.2775094 Z" id="Path"></path>
                <path d="M35.4980195,86.4970478 C35.7936509,85.9006807 36.0491163,85.2852485 36.2627111,84.6548578 C36.2627111,84.6548578 34.9438328,84.9640365 32.8516707,82.5077831 C31.3265833,80.7042405 31.2406629,77.2989801 31.4597599,75.0746108 C31.0688221,76.3886205 30.4501951,81.8894257 32.5423572,84.3671498 C33.9127878,85.9688674 34.9438328,86.3939882 35.4980195,86.4970478 Z" id="Path"></path>
                <path d="M31.4554639,69.3204509 C31.5919677,70.8465593 31.6435994,72.3790661 31.6101207,73.9108964 C31.6497813,73.6676831 31.7028463,73.4268442 31.7690734,73.1894793 C32.1600113,71.8754697 31.7690734,67.4610843 31.7690734,67.4610843 C31.7690734,67.4610843 31.8464018,64.3607085 31.2277748,63.3558776 C30.6091478,62.3510467 29.2902695,56.6140633 29.2902695,56.6140633 C29.2902695,56.6140633 29.2902695,54.677402 28.2076722,53.6725711 C27.125075,52.6677402 26.4248236,48.7128288 26.4248236,48.7128288 C25.7882351,47.7268412 25.5134293,46.5506987 25.6472439,45.3848631 C25.879229,43.4482018 24.3326615,41.3569512 24.3326615,41.3569512 L21.6949048,32.9876543 L19.2161008,26.7139023 L17.8198941,30.3553408 C17.8198941,30.3553408 17.8198941,30.8148148 17.7726378,31.5319377 L18.9067873,28.5732689 L21.3855913,34.8470209 L24.0319401,43.2163178 C24.0319401,43.2163178 25.5828036,45.3075684 25.3508184,47.2442297 C25.2170038,48.4100654 25.4918097,49.5862078 26.1283982,50.5721954 C26.1283982,50.5721954 26.8243536,54.5228127 27.9069508,55.5319377 C28.989548,56.5410628 28.993844,58.47343 28.993844,58.47343 C28.993844,58.47343 30.3127224,64.2061192 30.9313494,65.2152442 C31.5499764,66.2243693 31.4554639,69.3204509 31.4554639,69.3204509 Z" id="Path"></path>
            </g>
            <path d="M373.112171,116.053677 L372.527912,118.879227 L372.56228,120.137413 L372.588056,121.069243 L369.353153,121.399893 L368.992287,120.730005 C368.322108,119.519055 366.934493,117.054214 366.483411,116.676329 C365.886264,116.173913 364.820851,108.311326 366.101065,108.775094 C366.882437,109.077596 367.523805,109.659012 367.901098,110.406871 C367.901098,110.406871 374.254912,111.154053 373.112171,116.053677 Z" id="Path" fill="#FFCDD3"></path>
            <path d="M372.588056,121.08642 L369.353153,121.417069 L368.992287,120.747182 C369.890583,119.726855 371.383857,119.480779 372.56228,120.158884 L372.588056,121.08642 Z" id="Path" fill="#000000" opacity="0.1"></path>
            <path d="M373.4043,122.615137 L369.138352,123.602791 L369.052431,122.967257 L368.807558,121.249597 C368.807558,121.249597 370.495894,118.999463 372.936034,120.687064 L373.146539,121.545894 L373.4043,122.615137 Z" id="Path" fill="#DCE6F2"></path>
            <path d="M304.332879,116.380032 L299.783393,118.819109 L299.353791,117.960279 C298.924189,117.054214 298.27549,115.688674 298.099353,115.199141 C297.828703,114.447665 295.929862,113.481481 295.929862,113.481481 C291.165575,108.929683 296.840619,105.017713 296.840619,105.017713 C299.847833,98.9758454 303.194433,107.070317 303.194433,107.070317 C303.194433,107.070317 303.658404,111.334407 303.331906,111.622115 C303.005408,111.909823 303.001112,113.073537 303.001112,113.073537 C303.436957,113.911541 303.804735,114.783196 304.100894,115.680086 C304.259846,116.113795 304.332879,116.380032 304.332879,116.380032 Z" id="Path" fill="#FFCDD3"></path>
            <path d="M304.332879,116.380032 L299.783393,118.819109 L299.353791,117.960279 C299.993898,117.427805 302.275085,115.58132 303.022592,115.662909 C303.380277,115.706846 303.741315,115.716911 304.100894,115.692968 C304.259846,116.113795 304.332879,116.380032 304.332879,116.380032 Z" id="Path" fill="#000000" opacity="0.1"></path>
            <path d="M304.796849,117.771337 L299.684584,120.292002 L299.58148,119.1927 L299.508447,118.432636 C299.508447,118.432636 302.472702,115.894793 303.34909,115.989265 C303.792094,116.053937 304.242148,116.053937 304.685152,115.989265 L304.741001,116.908213 L304.796849,117.771337 Z" id="Path" fill="#DCE6F2"></path>
            <path d="M360.713855,134.853462 C360.713855,134.853462 338.408915,137.369834 342.580352,136.017177 C345.480166,135.072464 346.631499,133.230274 346.876372,131.181965 C347.069693,129.464305 346.631499,127.617821 346.042944,126.028986 C345.516661,124.622342 344.848781,123.272777 344.049591,122.001074 C344.049591,122.001074 361.100497,112.626946 357.689456,121.142244 C357.163372,122.430653 356.837406,123.791873 356.722852,125.178744 C356.614998,126.554795 356.760609,127.93895 357.152454,129.26248 C357.797758,131.420273 359.030857,133.356095 360.713855,134.853462 Z" id="Path" fill="#FFCDD3"></path>
            <path d="M357.689456,121.146538 C357.163372,122.434947 356.837406,123.796167 356.722852,125.183038 C355.11614,126.531401 353.354772,126.441224 351.095065,126.441224 C349.376656,126.441224 347.434855,126.870639 346.042944,126.011809 C345.516661,124.605165 344.848781,123.2556 344.049591,121.983897 C344.049591,121.983897 361.100497,112.618357 357.689456,121.146538 Z" id="Path" fill="#000000" opacity="0.1"></path>
            <ellipse id="Oval" fill="#FFCDD3" cx="350.790047" cy="117.814278" rx="9.22355655" ry="9.21953838"></ellipse>
            <path d="M360.713855,134.853462 C360.713855,134.853462 338.408915,137.369834 342.580352,136.017177 C345.480166,135.072464 346.631499,133.230274 346.876372,131.181965 C347.984746,129.979603 350.21438,129.112185 351.649251,128.652711 C352.957572,128.213248 354.370138,128.190741 355.691807,128.588298 C356.211763,128.742348 356.706649,128.97088 357.161046,129.266774 C357.804668,131.422034 359.034675,133.356183 360.713855,134.853462 Z" id="Path" fill="#000000" opacity="0.1"></path>
            <path d="M373.4043,122.615137 L369.138352,123.602791 L369.052431,122.967257 C369.986281,121.685729 371.623089,121.126057 373.146539,121.567364 L373.4043,122.615137 Z" id="Path" fill="#000000" opacity="0.1"></path>
            <path d="M304.796849,117.771337 L299.684584,120.292002 L299.58148,119.1927 C301.240226,118.303229 302.963484,117.539584 304.736705,116.908213 L304.796849,117.771337 Z" id="Path" fill="#000000" opacity="0.1"></path>
            <path d="M369.533586,191.025228 C360.898584,192.390768 348.603373,194.164251 346.652979,193.571659 C345.037675,193.077831 339.869562,193.142244 335.371629,193.283951 C335.410293,191.033816 335.448957,189.543747 335.448957,189.543747 L368.927847,186.048309 C368.97849,187.7222 369.181237,189.388026 369.533586,191.025228 Z" id="Path" fill="#000000" opacity="0.1"></path>
            <path d="M378.147107,188.99839 C378.147107,188.99839 349.70745,193.880837 346.652979,192.949007 C343.598508,192.017177 327.930921,193.026302 327.930921,193.026302 C320.881151,197.749866 323.823925,190.780462 323.823925,190.780462 C323.823925,190.780462 323.205298,187.139023 324.05591,184.197531 C324.633887,182.040061 325.0305,179.838091 325.241612,177.6146 C325.241612,177.6146 325.086955,172.964037 325.937567,171.881911 C326.788179,170.799785 327.797744,163.048846 327.797744,163.048846 C327.797744,163.048846 328.575324,157.784219 328.497995,156.607622 C328.501364,155.133207 328.57879,153.65989 328.729981,152.193237 L329.735249,146.769726 C323.922733,145.996779 306.2532,135.149758 306.2532,135.149758 C305.393996,131.512614 298.816788,122.988728 298.816788,122.988728 C298.721118,122.271975 298.537886,121.569651 298.271194,120.897477 C297.807223,119.660762 304.783961,117.183038 304.783961,117.183038 C304.783961,117.183038 309.973554,123.534085 311.060447,125.238862 C312.147341,126.943639 315.863398,130.117016 315.863398,130.117016 C316.445772,130.057453 317.034026,130.133893 317.581807,130.340311 L317.672023,130.366076 C318.919239,130.859274 320.088432,131.5304 321.143208,132.358561 C322.89018,132.316571 324.584951,132.955684 325.868831,134.140633 C325.868831,134.140633 329.047886,133.676865 329.589185,134.217928 C330.130483,134.758991 332.845568,134.217928 332.845568,134.217928 C332.845568,134.217928 335.556358,128.485239 337.339206,130.151369 C339.122055,131.817499 346.683051,131.740204 346.683051,131.740204 C347.692616,130.400429 350.145644,129.43854 351.679323,128.944713 C352.987982,128.507218 354.399935,128.48472 355.721879,128.880301 C356.29311,129.043816 356.832156,129.303781 357.315703,129.648953 L361.903853,134.140633 C361.903853,134.140633 363.222731,132.422974 363.068074,132.049383 C362.913418,131.675792 364.618938,131.353731 364.618938,131.353731 C364.618938,131.353731 366.865757,130.653784 367.716369,130.4219 C368.566981,130.190016 369.348857,131.113258 369.434777,131.194847 C369.409001,131.096082 368.824742,129.219538 369.052431,127.789587 C369.28012,126.359635 368.120195,124.99839 368.120195,124.99839 C370.83528,118.338164 376.95711,123.916264 376.95711,123.916264 C376.95711,123.916264 377.653065,127.557703 377.034438,128.949007 C376.415811,130.340311 377.653065,133.290392 377.498408,134.063339 C377.343751,134.836286 377.807722,136.154589 377.807722,137.627483 C377.807722,139.100376 377.034438,141.887279 376.566172,143.123994 C376.097905,144.360709 372.381847,147.151906 372.381847,147.151906 C372.381847,147.151906 372.149862,151.570585 370.52167,154.125604 C368.893479,156.680623 369.855787,165.436393 369.855787,165.436393 C369.855787,165.436393 371.406651,172.268384 373.357044,174.454106 C375.307438,176.639828 378.147107,188.99839 378.147107,188.99839 Z" id="Path" fill="#656691"></path>
            <path d="M336.690507,138.031133 C336.690507,138.031133 335.831303,135.476114 335.062315,135.24423 C334.291714,134.958279 333.541101,134.621152 332.815496,134.235105 L333.313835,133.281804 C333.313835,133.281804 336.222241,134.080515 336.690507,134.930757 C337.158773,135.780998 336.690507,138.031133 336.690507,138.031133 Z" id="Path" fill="#000000" opacity="0.1"></path>
            <path d="M321.113136,132.371444 C320.958479,133.144391 314.05907,133.844337 314.05907,133.844337 L317.547439,130.3489 L317.633359,130.378959 C318.883581,130.871413 320.055715,131.542565 321.113136,132.371444 Z" id="Path" fill="#000000" opacity="0.1"></path>
            <ellipse id="Oval" fill="#575988" cx="301.153823" cy="121.743425" rx="1" ry="1"></ellipse>
            <ellipse id="Oval" fill="#575988" cx="301.948587" cy="122.984434" rx="1" ry="1"></ellipse>
            <ellipse id="Oval" fill="#575988" cx="302.726167" cy="124.126677" rx="1" ry="1"></ellipse>
            <ellipse id="Oval" fill="#575988" cx="303.538115" cy="125.367687" rx="1" ry="1"></ellipse>
            <ellipse id="Oval" fill="#575988" cx="376.587652" cy="125.29898" rx="1" ry="1"></ellipse>
            <ellipse id="Oval" fill="#575988" cx="376.66498" cy="126.441224" rx="1" ry="1"></ellipse>
            <ellipse id="Oval" fill="#575988" cx="376.733716" cy="127.583468" rx="1" ry="1"></ellipse>
            <path d="M336.729171,159.020934 C336.656139,158.930757 354.123759,180.981213 367.686297,168.240472 C367.686297,168.240472 346.257745,171.143317 336.729171,159.020934 Z" id="Path" fill="#000000" opacity="0.1"></path>
            <path d="M326.693667,170.486312 C326.693667,170.486312 337.145885,170.769726 338.237075,173.775631 L338.237075,176.906065 C337.633347,177.241666 336.899001,177.241666 336.295273,176.906065 C335.242748,176.334944 328.919006,173.127214 326.693667,174.668814 L326.693667,170.486312 Z" id="Path" fill="#000000" opacity="0.1"></path>
            <path d="M326.886988,170.486312 C326.886988,170.486312 336.883828,170.756844 337.927761,173.625335 L337.927761,176.601181 C337.349294,176.922224 336.646051,176.922224 336.067584,176.601181 C335.062315,176.060118 329.017814,172.99839 326.886988,174.454106 L326.886988,170.486312 Z" id="Path" fill="#656691"></path>
            <path d="M332.398782,147.796028 C333.467059,150.266582 334.8271,152.600565 336.44993,154.748256 C338.219529,157.121904 340.364115,159.191586 342.799449,160.876006 C342.799449,160.876006 332.570623,149.234568 332.398782,147.796028 Z" id="Path" fill="#000000" opacity="0.1"></path>
            <path d="M328.97915,135.656468 C328.97915,135.656468 330.723334,143.179817 335.216972,145.73913 L328.97915,135.656468 Z" id="Path" fill="#000000" opacity="0.1"></path>
            <path d="M326.302729,136.416532 C326.259769,136.27912 324.756161,142.368223 332.098061,145.73913 C332.115245,145.73913 328.97915,144.678476 326.302729,136.416532 Z" id="Path" fill="#000000" opacity="0.1"></path>
            <path d="M371.947949,131.370907 C371.831957,131.370907 375.573791,133.749866 376.587652,134.853462 C376.587652,134.853462 374.156104,131.216318 371.947949,131.370907 Z" id="Path" fill="#000000" opacity="0.1"></path>
            <path d="M348.298355,126.170692 C348.37248,126.662174 348.630419,127.107232 349.020087,127.415996 C349.288445,127.543772 349.582042,127.609802 349.879291,127.609232 C352.693184,127.780998 355.618774,127.905529 358.217867,126.823403 C358.709995,126.654823 359.152752,126.367157 359.506673,125.986044 C359.970644,125.419216 360.056564,124.650564 360.245589,123.946323 C360.606455,122.567901 361.384034,121.339775 361.963997,120.030059 C362.906273,117.814575 363.22133,115.382862 362.874754,113.000537 C362.80677,112.269324 362.56683,111.564529 362.174502,110.943639 C361.426995,109.87869 360.069452,109.449275 359.081367,108.603328 C358.093282,107.757381 357.461767,106.456253 356.310434,105.820719 C355.270797,105.245303 354.003471,105.31401 352.830657,105.511541 C350.515183,105.899249 348.295581,106.727228 346.292113,107.950617 C345.62623,108.358561 344.891611,108.830918 344.144103,108.689211 C343.469628,108.560386 342.979881,107.993559 342.545983,107.465378 C341.99806,108.729259 341.762308,110.106332 341.85862,111.480408 C341.893088,111.680763 341.893088,111.885528 341.85862,112.085883 C341.761464,112.326686 341.61515,112.544598 341.429018,112.725711 C340.733063,113.528717 340.299164,114.804079 340.999416,115.615674 C341.295841,115.972088 341.755516,116.165325 342.047645,116.526033 C342.567463,117.17445 342.391327,118.101986 342.378439,118.935051 C342.348905,119.222801 342.421931,119.511737 342.584648,119.750939 C342.890497,120.034269 343.322402,120.136903 343.723093,120.021471 C344.115577,119.904664 344.527044,119.865285 344.934571,119.905529 C345.36798,120.047715 345.739491,120.334184 345.987096,120.717123 C347.250126,122.366076 347.75276,124.182501 348.298355,126.170692 Z" id="Path" fill="#2D293D"></path>
            <g id="Group" opacity="0.1" transform="translate(340.303461, 107.246377)" fill="#000000">
                <path d="M19.4996382,18.0268384 C19.1491205,18.4168876 18.7058488,18.7122734 18.210832,18.8856683 C15.6332195,19.9677939 12.6861493,19.8432636 9.87225568,19.6672034 C9.5745601,19.6719645 9.28001772,19.6057213 9.01305153,19.4739667 C8.62238636,19.1660658 8.36419973,18.7205806 8.29132005,18.2286634 C7.74572541,16.2447665 7.24309098,14.4283414 5.9413967,12.7793881 C5.69379203,12.3964489 5.32228122,12.1099797 4.88887161,11.9677939 C4.48135075,11.9254053 4.06946424,11.9648241 3.67739376,12.0837359 C3.2806232,12.1926464 2.85569674,12.0905139 2.55183633,11.8132045 C2.38881366,11.5725257 2.31580612,11.2821431 2.34562733,10.993022 C2.34562733,10.1642512 2.53465224,9.23242083 2.01483373,8.58829844 C1.72270432,8.22329576 1.26732612,8.03435319 0.966604669,7.67793881 C0.572053886,7.14054064 0.502840415,6.43058801 0.786171797,5.82716049 C0.296425432,6.60869565 0.0816243942,7.61352657 0.657291175,8.2962963 C0.953716606,8.65271068 1.41339083,8.8459474 1.70552024,9.20665593 C2.22533875,9.85507246 2.0492019,10.7826087 2.03631384,11.6156736 C2.00678046,11.9034236 2.07980653,12.1923592 2.24252283,12.431562 C2.54837238,12.7148912 2.98027751,12.8175258 3.38096833,12.7020934 C3.77345198,12.5852867 4.18491928,12.5459081 4.59244618,12.5861514 C5.02585579,12.7283372 5.39736659,13.0148064 5.64497126,13.3977456 C6.93377749,15.0466989 7.44929998,16.863124 7.99489461,18.8513151 C7.99799431,19.2586137 8.17166609,19.6459853 8.47373625,19.9193621 C8.77580641,20.1927389 9.17864278,20.3271135 9.58442229,20.2898551 C12.3983159,20.461621 15.323906,20.5861514 17.9229986,19.5040258 C18.4151268,19.3354461 18.8578835,19.0477797 19.2118048,18.6666667 C19.3871991,18.4425693 19.5223791,18.189762 19.6113347,17.9194847 C19.5762467,17.9574335 19.5389498,17.9932803 19.4996382,18.0268384 Z" id="Path"></path>
                <path d="M1.55515951,4.59473967 C1.68159259,4.46206499 1.77825608,4.30395727 1.83869688,4.13097155 C1.87308073,3.93060971 1.87308073,3.72585835 1.83869688,3.52549651 C1.7593057,2.39584538 1.9053356,1.26168741 2.26829896,0.188942566 L2.21674671,0.128824477 C1.66653321,1.39202253 1.43068492,2.76966056 1.52938339,4.143854 C1.55083986,4.29313782 1.55946343,4.44398447 1.55515951,4.59473967 Z" id="Path"></path>
            </g>
        </g>
    </g>
</svg>